<svg viewBox="0 0 330 200" xmlns="http://www.w3.org/2000/svg"><g><g><g><g><g><line x1="41.171875" y1="123.04099043234666" x2="36.171875" y2="123.04099043234666" style="visibility: inherit;" fill="rgb(0, 0, 0)" stroke="rgb(204, 204, 204)" stroke-width="1px"></line><line x1="41.171875" y1="36.27353580363783" x2="36.171875" y2="36.27353580363783" style="visibility: inherit;" fill="rgb(0, 0, 0)" stroke="rgb(204, 204, 204)" stroke-width="1px"></line></g><g transform="translate(31.171875, 0)"><text x="0" y="123.04099043234666" dx="0em" dy="0.3em" style="text-anchor: end; visibility: inherit; font-family: Roboto, sans-serif; font-size: 12px; font-weight: 200;" fill="rgb(33, 33, 33)" stroke="none" stroke-width="1px">0.7</text><text x="0" y="36.27353580363783" dx="0em" dy="0.3em" style="text-anchor: end; visibility: inherit; font-family: Roboto, sans-serif; font-size: 12px; font-weight: 200;" fill="rgb(33, 33, 33)" stroke="none" stroke-width="1px">0.8</text></g><line x1="41.171875" y1="0" x2="41.171875" y2="177" fill="rgb(0, 0, 0)" stroke="rgb(204, 204, 204)" stroke-width="1px"></line></g></g><g transform="translate(41, 0)" clip-path="url(#clip_0)"><clipPath id="clip_0"><rect width="288" height="177"></rect></clipPath><g><g><g><line x1="0" y1="0" x2="0" y2="177" fill="rgb(0, 0, 0)" stroke="rgb(66, 66, 66)" stroke-width="1px" opacity="0.25"></line><line x1="24.069010416666664" y1="0" x2="24.069010416666664" y2="177" fill="rgb(0, 0, 0)" stroke="rgb(66, 66, 66)" stroke-width="1px" opacity="0.25"></line><line x1="48.13802083333333" y1="0" x2="48.13802083333333" y2="177" fill="rgb(0, 0, 0)" stroke="rgb(66, 66, 66)" stroke-width="1px" opacity="0.25"></line><line x1="72.20703125" y1="0" x2="72.20703125" y2="177" fill="rgb(0, 0, 0)" stroke="rgb(66, 66, 66)" stroke-width="1px" opacity="0.25"></line><line x1="96.27604166666666" y1="0" x2="96.27604166666666" y2="177" fill="rgb(0, 0, 0)" stroke="rgb(66, 66, 66)" stroke-width="1px" opacity="0.25"></line><line x1="120.34505208333334" y1="0" x2="120.34505208333334" y2="177" fill="rgb(0, 0, 0)" stroke="rgb(66, 66, 66)" stroke-width="1px" opacity="0.25"></line><line x1="144.4140625" y1="0" x2="144.4140625" y2="177" fill="rgb(0, 0, 0)" stroke="rgb(66, 66, 66)" stroke-width="1px" opacity="0.25"></line><line x1="168.48307291666669" y1="0" x2="168.48307291666669" y2="177" fill="rgb(0, 0, 0)" stroke="rgb(66, 66, 66)" stroke-width="1px" opacity="0.25"></line><line x1="192.55208333333331" y1="0" x2="192.55208333333331" y2="177" fill="rgb(0, 0, 0)" stroke="rgb(66, 66, 66)" stroke-width="1px" opacity="0.25"></line><line x1="216.62109375" y1="0" x2="216.62109375" y2="177" fill="rgb(0, 0, 0)" stroke="rgb(66, 66, 66)" stroke-width="1px" opacity="0.25"></line><line x1="240.69010416666669" y1="0" x2="240.69010416666669" y2="177" fill="rgb(0, 0, 0)" stroke="rgb(66, 66, 66)" stroke-width="1px" opacity="0.25"></line><line x1="264.7591145833333" y1="0" x2="264.7591145833333" y2="177" fill="rgb(0, 0, 0)" stroke="rgb(66, 66, 66)" stroke-width="1px" opacity="0.25"></line><line x1="288.828125" y1="0" x2="288.828125" y2="177" fill="rgb(0, 0, 0)" stroke="rgb(66, 66, 66)" stroke-width="1px" opacity="0.25"></line></g><g><line x1="0" y1="123.04099043234666" x2="288.828125" y2="123.04099043234666" fill="rgb(0, 0, 0)" stroke="rgb(66, 66, 66)" stroke-width="1px" opacity="0.25"></line><line x1="0" y1="36.27353580363783" x2="288.828125" y2="36.27353580363783" fill="rgb(0, 0, 0)" stroke="rgb(66, 66, 66)" stroke-width="1px" opacity="0.25"></line></g></g></g><g><g><line x1="24.069010416666664" y1="0" x2="24.069010416666664" y2="177" fill="rgb(0, 0, 0)" stroke="rgb(153, 153, 153)" stroke-width="1.5px"></line></g></g><g><g><g><g><g><path stroke="rgb(187, 187, 187)" stroke-width="2px" d="M31.289713541666668,240.1536102599636L33.696614583333336,159.5193353851094L36.103515625,120.57036819036395L38.510416666666664,99.87164975302314L40.917317708333336,89.64869041960256L43.32421875,84.37447284368152L45.731119791666664,82.05523159214512L48.13802083333333,80.8258974080088L50.544921875,79.39338752698616L52.951822916666664,78.25241921508918L55.358723958333336,76.46881045943519L57.765625,73.45917697532322L60.17252604166667,69.309783425944L62.579427083333336,65.33368347376039L64.986328125,61.92327424971025L67.39322916666667,58.31163663061141L69.80013020833333,55.896779461712086L72.20703125,53.63317649023247L74.61393229166667,51.78035428267407L77.02083333333333,49.45035285093194L79.427734375,47.69253808569206L81.83463541666667,47.3465221136442L84.24153645833334,47.21597493178179L86.6484375,47.33501905417804L89.05533854166667,47.658858862167214L91.46223958333333,47.263402648531994L93.869140625,46.33552624803565L96.27604166666666,45.42961014901873L98.68294270833333,44.85618227742983L101.08984375,43.83096084463875L103.49674479166667,42.55322762404784L105.90364583333333,41.32601129905326L108.310546875,39.93768096082733L110.71744791666667,39.60119824854673L113.12434895833333,39.72894774396715L115.53125,38.786544935859204L117.93815104166667,38.50979142828513L120.34505208333334,38.1008732023418L122.751953125,37.74426826659427L125.15885416666667,37.29072221450079L127.56575520833333,36.6565634986051L129.97265625,36.29980426100532L132.37955729166666,35.657596904352076L134.78645833333334,35.54840170052965L137.193359375,35.80213536863501L139.60026041666666,36.13425063902789L142.00716145833331,36.51065664323072L144.4140625,36.848988779413304L146.82096354166666,36.78687979301872L149.22786458333334,36.37312884846323L151.634765625,35.57276177202864L154.04166666666666,34.87066512235197L156.44856770833331,34.79043046595931L158.85546875,34.80822752204553L161.26236979166666,34.94417623299445L163.66927083333334,34.76886510158131L166.076171875,34.796085801315954L168.48307291666669,34.68550852763606L170.88997395833334,34.56031491167413L173.296875,34.61570663628388L175.70377604166666,34.70984953227385L178.11067708333334,34.63696436162489L180.517578125,34.53298936522638L182.92447916666666,34.47445876160346L185.33138020833334,34.50444373192473L187.73828125,34.269635474946405L190.14518229166666,33.82307952413225L192.55208333333331,33.32050158915489L194.958984375,33.16330527625046L197.36588541666666,32.82371068086039L199.77278645833334,32.50709433734472L202.1796875,32.39163827810024L204.58658854166669,32.263920728115345L206.99348958333334,32.19202679091877L209.400390625,31.963469427752454L211.80729166666666,31.83482699504481L214.21419270833334,31.887771393288148L216.62109375,31.917580987642584L219.02799479166666,32.0597354359553L221.43489583333334,31.951700906403556L223.841796875,31.89088536828181L226.24869791666666,31.919334234157866L228.65559895833331,31.809983431083463L231.0625,31.87378321024536L233.46940104166666,31.909705242251544L235.87630208333334,31.49129344431722L238.283203125,31.318473663917448L240.69010416666669,31.221196346984325L243.09700520833334,31.416905668139187L245.50390625,31.464489271597426L247.91080729166666,31.491280373552467L250.31770833333334,31.631652735554542L252.724609375,31.710695719594394L255.13151041666666,31.629888843101625L257.53841145833337,31.584398992654098L259.9453125,31.496138868821344L262.3522135416667,31.44645369323756" style="fill: none;" fill="none"></path></g></g></g></g><g opacity="0.2"><g><g><g><path stroke="rgb(187, 187, 187)" stroke-width="2px" d="M28.8828125,267.0069974961376L31.289713541666668,104.41499868942454L33.696614583333336,77.0943448548081L36.103515625,76.17242225288128L38.510416666666664,74.94524042537601L40.917317708333336,76.94058304425657L43.32421875,77.7096530044994L45.731119791666664,79.0963079478151L48.13802083333333,79.25058078142868L50.544921875,77.55579712887855L52.951822916666664,76.78690913793339L55.358723958333336,74.17943345595927L57.765625,69.60344867911802L60.17252604166667,64.00371699051858L62.579427083333336,60.2472770848814L64.986328125,57.55601397201963L67.39322916666667,53.68820176645824L69.80013020833333,52.79887448738214L72.20703125,50.72851522451198L74.61393229166667,49.40108375570176L77.02083333333333,46.460816067479605L79.427734375,45.43488454331337L81.83463541666667,46.90101141125133L84.24153645833334,47.04782589315493L86.6484375,47.488419216483415L89.05533854166667,48.076309215600034L91.46223958333333,46.75427929367834L93.869140625,45.14206553161974L96.27604166666666,44.26435038136932L98.68294270833333,44.118163385580736L101.08984375,42.51251773713145L103.49674479166667,40.91078113316996L105.90364583333333,39.7483611346274L108.310546875,38.15341537815412L110.71744791666667,39.167954322418694L113.12434895833333,39.89356822064288L115.53125,37.57443082457758L117.93815104166667,38.15341537815412L120.34505208333334,37.57443082457758L122.751953125,37.28513189318974L125.15885416666667,36.70687170229013L127.56575520833333,35.840469345405836L129.97265625,35.840469345405836L132.37955729166666,34.83115671330336L134.78645833333334,35.40774933951826L137.193359375,36.129174060243756L139.60026041666666,36.56237491699321L142.00716145833331,36.99591323873358L144.4140625,37.28513189318974L146.82096354166666,36.70687170229013L149.22786458333334,35.840469345405836L151.634765625,34.54307629406174L154.04166666666666,33.96725008671126L156.44856770833331,34.68707639130156L158.85546875,34.83115671330336L161.26236979166666,35.119364907752L163.66927083333334,34.54307629406174L166.076171875,34.83115671330336L168.48307291666669,34.54307629406174L170.88997395833334,34.39905982788755L173.296875,34.68707639130156L175.70377604166666,34.83115671330336L178.11067708333334,34.54307629406174L180.517578125,34.39905982788755L182.92447916666666,34.39905982788755L185.33138020833334,34.54307629406174L187.73828125,33.96725008671126L190.14518229166666,33.248220310317414L192.55208333333331,32.67358806429199L194.958984375,32.96084066642468L197.36588541666666,32.38646239164642L199.77278645833334,32.09941543318301L202.1796875,32.242923061934306L204.58658854166669,32.09941543318301L206.99348958333334,32.09941543318301L209.400390625,31.669130684081036L211.80729166666666,31.669130684081036L214.21419270833334,31.955987583953778L216.62109375,31.955987583953778L219.02799479166666,32.242923061934306L221.43489583333334,31.81254330451979L223.841796875,31.81254330451979L226.24869791666666,31.955987583953778L228.65559895833331,31.669130684081036L231.0625,31.955987583953778L233.46940104166666,31.955987583953778L235.87630208333334,30.952638014845796L238.283203125,31.09589257087201L240.69010416666669,31.09589257087201L243.09700520833334,31.669130684081036L245.50390625,31.52579776939769L247.91080729166666,31.52579776939769L250.31770833333334,31.81254330451979L252.724609375,31.81254330451979L255.13151041666666,31.52579776939769L257.53841145833337,31.52579776939769L259.9453125,31.38244841444247L262.3522135416667,31.38244841444247" style="fill: none;" fill="none"></path></g></g></g></g></g><g><g><circle r="4" cx="262.3522135416667" cy="24.592511634185783" fill="rgb(0, 153, 136)" style="stroke: none;" stroke="none" stroke-width="1px"></circle></g></g></g><g transform="translate(41, 177)" clip-path="url(#clip_1)"><clipPath id="clip_1"><rect width="288" height="23"></rect></clipPath><g><g><line x1="0" y1="0" x2="0" y2="5" style="visibility: inherit;" fill="rgb(0, 0, 0)" stroke="rgb(204, 204, 204)" stroke-width="1px"></line><line x1="24.069010416666664" y1="0" x2="24.069010416666664" y2="5" style="visibility: inherit;" fill="rgb(0, 0, 0)" stroke="rgb(204, 204, 204)" stroke-width="1px"></line><line x1="48.13802083333333" y1="0" x2="48.13802083333333" y2="5" style="visibility: inherit;" fill="rgb(0, 0, 0)" stroke="rgb(204, 204, 204)" stroke-width="1px"></line><line x1="72.20703125" y1="0" x2="72.20703125" y2="5" style="visibility: inherit;" fill="rgb(0, 0, 0)" stroke="rgb(204, 204, 204)" stroke-width="1px"></line><line x1="96.27604166666666" y1="0" x2="96.27604166666666" y2="5" style="visibility: inherit;" fill="rgb(0, 0, 0)" stroke="rgb(204, 204, 204)" stroke-width="1px"></line><line x1="120.34505208333334" y1="0" x2="120.34505208333334" y2="5" style="visibility: inherit;" fill="rgb(0, 0, 0)" stroke="rgb(204, 204, 204)" stroke-width="1px"></line><line x1="144.4140625" y1="0" x2="144.4140625" y2="5" style="visibility: inherit;" fill="rgb(0, 0, 0)" stroke="rgb(204, 204, 204)" stroke-width="1px"></line><line x1="168.48307291666669" y1="0" x2="168.48307291666669" y2="5" style="visibility: inherit;" fill="rgb(0, 0, 0)" stroke="rgb(204, 204, 204)" stroke-width="1px"></line><line x1="192.55208333333331" y1="0" x2="192.55208333333331" y2="5" style="visibility: inherit;" fill="rgb(0, 0, 0)" stroke="rgb(204, 204, 204)" stroke-width="1px"></line><line x1="216.62109375" y1="0" x2="216.62109375" y2="5" style="visibility: inherit;" fill="rgb(0, 0, 0)" stroke="rgb(204, 204, 204)" stroke-width="1px"></line><line x1="240.69010416666669" y1="0" x2="240.69010416666669" y2="5" style="visibility: inherit;" fill="rgb(0, 0, 0)" stroke="rgb(204, 204, 204)" stroke-width="1px"></line><line x1="264.7591145833333" y1="0" x2="264.7591145833333" y2="5" style="visibility: inherit;" fill="rgb(0, 0, 0)" stroke="rgb(204, 204, 204)" stroke-width="1px"></line><line x1="288.828125" y1="0" x2="288.828125" y2="5" style="visibility: inherit;" fill="rgb(0, 0, 0)" stroke="rgb(204, 204, 204)" stroke-width="1px"></line></g><g transform="translate(0, 8)"><text x="0" y="0" dx="0em" dy="0.95em" style="text-anchor: middle; visibility: hidden; font-family: Roboto, sans-serif; font-size: 12px; font-weight: 200;" fill="rgb(33, 33, 33)" stroke="none" stroke-width="1px">-10</text><text x="24.069010416666664" y="0" dx="0em" dy="0.95em" style="text-anchor: middle; visibility: inherit; font-family: Roboto, sans-serif; font-size: 12px; font-weight: 200;" fill="rgb(33, 33, 33)" stroke="none" stroke-width="1px">0</text><text x="48.13802083333333" y="0" dx="0em" dy="0.95em" style="text-anchor: middle; visibility: inherit; font-family: Roboto, sans-serif; font-size: 12px; font-weight: 200;" fill="rgb(33, 33, 33)" stroke="none" stroke-width="1px">10</text><text x="72.20703125" y="0" dx="0em" dy="0.95em" style="text-anchor: middle; visibility: inherit; font-family: Roboto, sans-serif; font-size: 12px; font-weight: 200;" fill="rgb(33, 33, 33)" stroke="none" stroke-width="1px">20</text><text x="96.27604166666666" y="0" dx="0em" dy="0.95em" style="text-anchor: middle; visibility: inherit; font-family: Roboto, sans-serif; font-size: 12px; font-weight: 200;" fill="rgb(33, 33, 33)" stroke="none" stroke-width="1px">30</text><text x="120.34505208333334" y="0" dx="0em" dy="0.95em" style="text-anchor: middle; visibility: inherit; font-family: Roboto, sans-serif; font-size: 12px; font-weight: 200;" fill="rgb(33, 33, 33)" stroke="none" stroke-width="1px">40</text><text x="144.4140625" y="0" dx="0em" dy="0.95em" style="text-anchor: middle; visibility: inherit; font-family: Roboto, sans-serif; font-size: 12px; font-weight: 200;" fill="rgb(33, 33, 33)" stroke="none" stroke-width="1px">50</text><text x="168.48307291666669" y="0" dx="0em" dy="0.95em" style="text-anchor: middle; visibility: inherit; font-family: Roboto, sans-serif; font-size: 12px; font-weight: 200;" fill="rgb(33, 33, 33)" stroke="none" stroke-width="1px">60</text><text x="192.55208333333331" y="0" dx="0em" dy="0.95em" style="text-anchor: middle; visibility: inherit; font-family: Roboto, sans-serif; font-size: 12px; font-weight: 200;" fill="rgb(33, 33, 33)" stroke="none" stroke-width="1px">70</text><text x="216.62109375" y="0" dx="0em" dy="0.95em" style="text-anchor: middle; visibility: inherit; font-family: Roboto, sans-serif; font-size: 12px; font-weight: 200;" fill="rgb(33, 33, 33)" stroke="none" stroke-width="1px">80</text><text x="240.69010416666669" y="0" dx="0em" dy="0.95em" style="text-anchor: middle; visibility: inherit; font-family: Roboto, sans-serif; font-size: 12px; font-weight: 200;" fill="rgb(33, 33, 33)" stroke="none" stroke-width="1px">90</text><text x="264.7591145833333" y="0" dx="0em" dy="0.95em" style="text-anchor: middle; visibility: inherit; font-family: Roboto, sans-serif; font-size: 12px; font-weight: 200;" fill="rgb(33, 33, 33)" stroke="none" stroke-width="1px">100</text><text x="288.828125" y="0" dx="0em" dy="0.95em" style="text-anchor: middle; visibility: hidden; font-family: Roboto, sans-serif; font-size: 12px; font-weight: 200;" fill="rgb(33, 33, 33)" stroke="none" stroke-width="1px">110</text></g><line x1="0" y1="0" x2="288.828125" y2="0" fill="rgb(0, 0, 0)" stroke="rgb(204, 204, 204)" stroke-width="1px"></line></g></g></g></g></svg>