<svg viewBox="0 0 330 200" xmlns="http://www.w3.org/2000/svg"><g><g><g><g><g><line x1="41.171875" y1="123.04099043234666" x2="36.171875" y2="123.04099043234666" style="visibility: inherit;" fill="rgb(0, 0, 0)" stroke="rgb(204, 204, 204)" stroke-width="1px"></line><line x1="41.171875" y1="36.27353580363783" x2="36.171875" y2="36.27353580363783" style="visibility: inherit;" fill="rgb(0, 0, 0)" stroke="rgb(204, 204, 204)" stroke-width="1px"></line></g><g transform="translate(31.171875, 0)"><text x="0" y="123.04099043234666" dx="0em" dy="0.3em" style="text-anchor: end; visibility: inherit; font-family: Roboto, sans-serif; font-size: 12px; font-weight: 200;" fill="rgb(33, 33, 33)" stroke="none" stroke-width="1px">0.7</text><text x="0" y="36.27353580363783" dx="0em" dy="0.3em" style="text-anchor: end; visibility: inherit; font-family: Roboto, sans-serif; font-size: 12px; font-weight: 200;" fill="rgb(33, 33, 33)" stroke="none" stroke-width="1px">0.8</text></g><line x1="41.171875" y1="0" x2="41.171875" y2="177" fill="rgb(0, 0, 0)" stroke="rgb(204, 204, 204)" stroke-width="1px"></line></g></g><g transform="translate(41, 0)" clip-path="url(#clip_0)"><clipPath id="clip_0"><rect width="288" height="177"></rect></clipPath><g><g><g><line x1="0" y1="0" x2="0" y2="177" fill="rgb(0, 0, 0)" stroke="rgb(66, 66, 66)" stroke-width="1px" opacity="0.25"></line><line x1="24.069010416666664" y1="0" x2="24.069010416666664" y2="177" fill="rgb(0, 0, 0)" stroke="rgb(66, 66, 66)" stroke-width="1px" opacity="0.25"></line><line x1="48.13802083333333" y1="0" x2="48.13802083333333" y2="177" fill="rgb(0, 0, 0)" stroke="rgb(66, 66, 66)" stroke-width="1px" opacity="0.25"></line><line x1="72.20703125" y1="0" x2="72.20703125" y2="177" fill="rgb(0, 0, 0)" stroke="rgb(66, 66, 66)" stroke-width="1px" opacity="0.25"></line><line x1="96.27604166666666" y1="0" x2="96.27604166666666" y2="177" fill="rgb(0, 0, 0)" stroke="rgb(66, 66, 66)" stroke-width="1px" opacity="0.25"></line><line x1="120.34505208333334" y1="0" x2="120.34505208333334" y2="177" fill="rgb(0, 0, 0)" stroke="rgb(66, 66, 66)" stroke-width="1px" opacity="0.25"></line><line x1="144.4140625" y1="0" x2="144.4140625" y2="177" fill="rgb(0, 0, 0)" stroke="rgb(66, 66, 66)" stroke-width="1px" opacity="0.25"></line><line x1="168.48307291666669" y1="0" x2="168.48307291666669" y2="177" fill="rgb(0, 0, 0)" stroke="rgb(66, 66, 66)" stroke-width="1px" opacity="0.25"></line><line x1="192.55208333333331" y1="0" x2="192.55208333333331" y2="177" fill="rgb(0, 0, 0)" stroke="rgb(66, 66, 66)" stroke-width="1px" opacity="0.25"></line><line x1="216.62109375" y1="0" x2="216.62109375" y2="177" fill="rgb(0, 0, 0)" stroke="rgb(66, 66, 66)" stroke-width="1px" opacity="0.25"></line><line x1="240.69010416666669" y1="0" x2="240.69010416666669" y2="177" fill="rgb(0, 0, 0)" stroke="rgb(66, 66, 66)" stroke-width="1px" opacity="0.25"></line><line x1="264.7591145833333" y1="0" x2="264.7591145833333" y2="177" fill="rgb(0, 0, 0)" stroke="rgb(66, 66, 66)" stroke-width="1px" opacity="0.25"></line><line x1="288.828125" y1="0" x2="288.828125" y2="177" fill="rgb(0, 0, 0)" stroke="rgb(66, 66, 66)" stroke-width="1px" opacity="0.25"></line></g><g><line x1="0" y1="123.04099043234666" x2="288.828125" y2="123.04099043234666" fill="rgb(0, 0, 0)" stroke="rgb(66, 66, 66)" stroke-width="1px" opacity="0.25"></line><line x1="0" y1="36.27353580363783" x2="288.828125" y2="36.27353580363783" fill="rgb(0, 0, 0)" stroke="rgb(66, 66, 66)" stroke-width="1px" opacity="0.25"></line></g></g></g><g><g><line x1="24.069010416666664" y1="0" x2="24.069010416666664" y2="177" fill="rgb(0, 0, 0)" stroke="rgb(153, 153, 153)" stroke-width="1.5px"></line></g></g><g><g><g><g><g><path stroke="rgb(255, 112, 67)" stroke-width="2px" d="M33.696614583333336,187.4975113215592L36.103515625,148.83129815662778L38.510416666666664,123.89415616082945L40.917317708333336,107.85088243430955L43.32421875,95.96007502006456L45.731119791666664,86.18466324882078L48.13802083333333,77.86178011916822L50.544921875,72.16366267760965L52.951822916666664,67.98616929632523L55.358723958333336,63.86696780744272L57.765625,60.904350454575706L60.17252604166667,58.262722959592764L62.579427083333336,55.80418770515098L64.986328125,53.451571638760534L67.39322916666667,51.48454428700465L69.80013020833333,50.05739124025614L72.20703125,48.67615881915924L74.61393229166667,47.96407300427033L77.02083333333333,47.178373135442044L79.427734375,47.18547486051023L81.83463541666667,46.61220289073336L84.24153645833334,45.585147266390855L86.6484375,44.6240005412831L89.05533854166667,43.63660595649431L91.46223958333333,42.06189561206038L93.869140625,41.11344629221228L96.27604166666666,40.07210293950268L98.68294270833333,39.0427942188859L101.08984375,38.02096291082542L103.49674479166667,37.06718698233555L105.90364583333333,36.0890950706234L108.310546875,35.53907640892637L110.71744791666667,35.54469829381276L113.12434895833333,35.863095496598746L115.53125,35.664069972047265L117.93815104166667,35.552045417330206L120.34505208333334,35.047939024444354L122.751953125,34.638405199863605L125.15885416666667,34.21921243086614L127.56575520833333,33.92044090185139L129.97265625,33.4380829958999L132.37955729166666,32.664458363219296L134.78645833333334,32.41747415713692L137.193359375,32.71763199407714L139.60026041666666,32.63562372319201L142.00716145833331,32.777723504642715L144.4140625,32.85773935630649L146.82096354166666,32.52624292966756L149.22786458333334,32.46515513555772L151.634765625,32.24259983352646L154.04166666666666,32.2427410843209L156.44856770833331,32.18010388577118L158.85546875,31.580778146646306L161.26236979166666,31.243600811320036L163.66927083333334,31.3669058061055L166.076171875,31.31108597922988L168.48307291666669,31.467527246309647L170.88997395833334,31.61827672886562L173.296875,31.57786180447379L175.70377604166666,31.49245892365972L178.11067708333334,31.25650201677243L180.517578125,30.873338897787992L182.92447916666666,30.47006469257584L185.33138020833334,30.180607364261135L187.73828125,30.08020795110237L190.14518229166666,29.773756216506623L192.55208333333331,29.78866848781617L194.958984375,29.922044508636677L197.36588541666666,30.122145053183125L199.77278645833334,30.359872310000547L202.1796875,30.43122385890604L204.58658854166669,30.47139822844173L206.99348958333334,30.243881904470612L209.400390625,30.178343044032406L211.80729166666666,30.1414475738483L214.21419270833334,30.308228196691555L216.62109375,30.46466890042403L219.02799479166666,30.302624357044973L221.43489583333334,30.148890085974806L223.841796875,29.999847061308746L226.24869791666666,30.040954009695877L228.65559895833331,30.06409836586923L231.0625,29.952118910085574L233.46940104166666,29.9515789420407L235.87630208333334,30.20129789239001L238.283203125,30.21687085701856L240.69010416666669,30.100620894261365L243.09700520833334,30.03518131466847L245.50390625,29.998341730796277L247.91080729166666,30.10259600155517L250.31770833333334,30.16129851638517L252.724609375,30.006831376290524L255.13151041666666,29.857410550805852L257.53841145833337,29.83576563405544L259.9453125,29.886069539119408L262.3522135416667,29.976890761539252" style="fill: none;" fill="none"></path></g></g></g></g><g opacity="0.2"><g><g><g><path stroke="rgb(255, 112, 67)" stroke-width="2px" d="M28.8828125,253.55411523054357L31.289713541666668,173.19809645742336L33.696614583333336,125.76964582987482L36.103515625,104.735791266479L38.510416666666664,94.07413109267071L40.917317708333336,88.10408049831514L43.32421875,81.10445802633319L45.731119791666664,73.87337345950449L48.13802083333333,67.32748428069856L50.544921875,64.90852338406721L52.951822916666664,62.64886534534184L55.358723958333336,58.601278274699006L57.765625,57.108543484920304L60.17252604166667,54.87580158837681L62.579427083333336,52.650754988199395L64.986328125,50.43330151340753L67.39322916666667,48.959192073031176L69.80013020833333,48.22338951607251L72.20703125,46.90101141125133L74.61393229166667,47.04782589315493L77.02083333333333,46.167534473442245L79.427734375,47.19462432025326L81.83463541666667,45.874385191690266L84.24153645833334,44.26435038136932L86.6484375,43.38781921977676L89.05533854166667,42.36672428585468L91.46223958333333,40.03875906844736L93.869140625,39.89356822064288L96.27604166666666,38.73296488261777L98.68294270833333,37.71910434459094L101.08984375,36.70687170229013L103.49674479166667,35.840469345405836L105.90364583333333,34.83115671330336L108.310546875,34.83115671330336L110.71744791666667,35.55194120575781L113.12434895833333,36.27352612100224L115.53125,35.40774933951826L117.93815104166667,35.40774933951826L120.34505208333334,34.39905982788755L122.751953125,34.11117086985791L125.15885416666667,33.679552335568424L127.56575520833333,33.53572710839214L129.97265625,32.81717441398687L132.37955729166666,31.669130684081036L134.78645833333334,32.09941543318301L137.193359375,33.10453868995L139.60026041666666,32.529985301262045L142.00716145833331,32.96084066642468L144.4140625,32.96084066642468L146.82096354166666,32.09941543318301L149.22786458333334,32.38646239164642L151.634765625,31.955987583953778L154.04166666666666,32.242923061934306L156.44856770833331,32.09941543318301L158.85546875,30.809463041911684L161.26236979166666,30.809463041911684L163.66927083333334,31.52579776939769L166.076171875,31.239178716137317L168.48307291666669,31.669130684081036L170.88997395833334,31.81254330451979L173.296875,31.52579776939769L175.70377604166666,31.38244841444247L178.11067708333334,30.952638014845796L180.517578125,30.380031356881357L182.92447916666666,29.95088328593038L185.33138020833334,29.807880911623524L187.73828125,29.95088328593038L190.14518229166666,29.379158323308847L192.55208333333331,29.807880911623524L194.958984375,30.09391713834421L197.36588541666666,30.380031356881357L199.77278645833334,30.66627161201853L202.1796875,30.5231597162509L204.58658854166669,30.5231597162509L206.99348958333334,29.95088328593038L209.400390625,30.09391713834421L211.80729166666666,30.09391713834421L214.21419270833334,30.5231597162509L216.62109375,30.66627161201853L219.02799479166666,30.09391713834421L221.43489583333334,29.95088328593038L223.841796875,29.807880911623524L226.24869791666666,30.09391713834421L228.65559895833331,30.09391713834421L231.0625,29.807880911623524L233.46940104166666,29.95088328593038L235.87630208333334,30.5231597162509L238.283203125,30.236934517225066L240.69010416666669,29.95088328593038L243.09700520833334,29.95088328593038L245.50390625,29.95088328593038L247.91080729166666,30.236934517225066L250.31770833333334,30.236934517225066L252.724609375,29.807880911623524L255.13151041666666,29.66495792486624L257.53841145833337,29.807880911623524L259.9453125,29.95088328593038L262.3522135416667,30.09391713834421" style="fill: none;" fill="none"></path></g></g></g></g></g></g><g transform="translate(41, 177)" clip-path="url(#clip_1)"><clipPath id="clip_1"><rect width="288" height="23"></rect></clipPath><g><g><line x1="0" y1="0" x2="0" y2="5" style="visibility: inherit;" fill="rgb(0, 0, 0)" stroke="rgb(204, 204, 204)" stroke-width="1px"></line><line x1="24.069010416666664" y1="0" x2="24.069010416666664" y2="5" style="visibility: inherit;" fill="rgb(0, 0, 0)" stroke="rgb(204, 204, 204)" stroke-width="1px"></line><line x1="48.13802083333333" y1="0" x2="48.13802083333333" y2="5" style="visibility: inherit;" fill="rgb(0, 0, 0)" stroke="rgb(204, 204, 204)" stroke-width="1px"></line><line x1="72.20703125" y1="0" x2="72.20703125" y2="5" style="visibility: inherit;" fill="rgb(0, 0, 0)" stroke="rgb(204, 204, 204)" stroke-width="1px"></line><line x1="96.27604166666666" y1="0" x2="96.27604166666666" y2="5" style="visibility: inherit;" fill="rgb(0, 0, 0)" stroke="rgb(204, 204, 204)" stroke-width="1px"></line><line x1="120.34505208333334" y1="0" x2="120.34505208333334" y2="5" style="visibility: inherit;" fill="rgb(0, 0, 0)" stroke="rgb(204, 204, 204)" stroke-width="1px"></line><line x1="144.4140625" y1="0" x2="144.4140625" y2="5" style="visibility: inherit;" fill="rgb(0, 0, 0)" stroke="rgb(204, 204, 204)" stroke-width="1px"></line><line x1="168.48307291666669" y1="0" x2="168.48307291666669" y2="5" style="visibility: inherit;" fill="rgb(0, 0, 0)" stroke="rgb(204, 204, 204)" stroke-width="1px"></line><line x1="192.55208333333331" y1="0" x2="192.55208333333331" y2="5" style="visibility: inherit;" fill="rgb(0, 0, 0)" stroke="rgb(204, 204, 204)" stroke-width="1px"></line><line x1="216.62109375" y1="0" x2="216.62109375" y2="5" style="visibility: inherit;" fill="rgb(0, 0, 0)" stroke="rgb(204, 204, 204)" stroke-width="1px"></line><line x1="240.69010416666669" y1="0" x2="240.69010416666669" y2="5" style="visibility: inherit;" fill="rgb(0, 0, 0)" stroke="rgb(204, 204, 204)" stroke-width="1px"></line><line x1="264.7591145833333" y1="0" x2="264.7591145833333" y2="5" style="visibility: inherit;" fill="rgb(0, 0, 0)" stroke="rgb(204, 204, 204)" stroke-width="1px"></line><line x1="288.828125" y1="0" x2="288.828125" y2="5" style="visibility: inherit;" fill="rgb(0, 0, 0)" stroke="rgb(204, 204, 204)" stroke-width="1px"></line></g><g transform="translate(0, 8)"><text x="0" y="0" dx="0em" dy="0.95em" style="text-anchor: middle; visibility: hidden; font-family: Roboto, sans-serif; font-size: 12px; font-weight: 200;" fill="rgb(33, 33, 33)" stroke="none" stroke-width="1px">-10</text><text x="24.069010416666664" y="0" dx="0em" dy="0.95em" style="text-anchor: middle; visibility: inherit; font-family: Roboto, sans-serif; font-size: 12px; font-weight: 200;" fill="rgb(33, 33, 33)" stroke="none" stroke-width="1px">0</text><text x="48.13802083333333" y="0" dx="0em" dy="0.95em" style="text-anchor: middle; visibility: inherit; font-family: Roboto, sans-serif; font-size: 12px; font-weight: 200;" fill="rgb(33, 33, 33)" stroke="none" stroke-width="1px">10</text><text x="72.20703125" y="0" dx="0em" dy="0.95em" style="text-anchor: middle; visibility: inherit; font-family: Roboto, sans-serif; font-size: 12px; font-weight: 200;" fill="rgb(33, 33, 33)" stroke="none" stroke-width="1px">20</text><text x="96.27604166666666" y="0" dx="0em" dy="0.95em" style="text-anchor: middle; visibility: inherit; font-family: Roboto, sans-serif; font-size: 12px; font-weight: 200;" fill="rgb(33, 33, 33)" stroke="none" stroke-width="1px">30</text><text x="120.34505208333334" y="0" dx="0em" dy="0.95em" style="text-anchor: middle; visibility: inherit; font-family: Roboto, sans-serif; font-size: 12px; font-weight: 200;" fill="rgb(33, 33, 33)" stroke="none" stroke-width="1px">40</text><text x="144.4140625" y="0" dx="0em" dy="0.95em" style="text-anchor: middle; visibility: inherit; font-family: Roboto, sans-serif; font-size: 12px; font-weight: 200;" fill="rgb(33, 33, 33)" stroke="none" stroke-width="1px">50</text><text x="168.48307291666669" y="0" dx="0em" dy="0.95em" style="text-anchor: middle; visibility: inherit; font-family: Roboto, sans-serif; font-size: 12px; font-weight: 200;" fill="rgb(33, 33, 33)" stroke="none" stroke-width="1px">60</text><text x="192.55208333333331" y="0" dx="0em" dy="0.95em" style="text-anchor: middle; visibility: inherit; font-family: Roboto, sans-serif; font-size: 12px; font-weight: 200;" fill="rgb(33, 33, 33)" stroke="none" stroke-width="1px">70</text><text x="216.62109375" y="0" dx="0em" dy="0.95em" style="text-anchor: middle; visibility: inherit; font-family: Roboto, sans-serif; font-size: 12px; font-weight: 200;" fill="rgb(33, 33, 33)" stroke="none" stroke-width="1px">80</text><text x="240.69010416666669" y="0" dx="0em" dy="0.95em" style="text-anchor: middle; visibility: inherit; font-family: Roboto, sans-serif; font-size: 12px; font-weight: 200;" fill="rgb(33, 33, 33)" stroke="none" stroke-width="1px">90</text><text x="264.7591145833333" y="0" dx="0em" dy="0.95em" style="text-anchor: middle; visibility: inherit; font-family: Roboto, sans-serif; font-size: 12px; font-weight: 200;" fill="rgb(33, 33, 33)" stroke="none" stroke-width="1px">100</text><text x="288.828125" y="0" dx="0em" dy="0.95em" style="text-anchor: middle; visibility: hidden; font-family: Roboto, sans-serif; font-size: 12px; font-weight: 200;" fill="rgb(33, 33, 33)" stroke="none" stroke-width="1px">110</text></g><line x1="0" y1="0" x2="288.828125" y2="0" fill="rgb(0, 0, 0)" stroke="rgb(204, 204, 204)" stroke-width="1px"></line></g></g></g></g></svg>