<svg viewBox="0 0 330 200" xmlns="http://www.w3.org/2000/svg"><g><g><g><g><g><line x1="41.171875" y1="123.04099043234666" x2="36.171875" y2="123.04099043234666" style="visibility: inherit;" fill="rgb(0, 0, 0)" stroke="rgb(204, 204, 204)" stroke-width="1px"></line><line x1="41.171875" y1="36.27353580363783" x2="36.171875" y2="36.27353580363783" style="visibility: inherit;" fill="rgb(0, 0, 0)" stroke="rgb(204, 204, 204)" stroke-width="1px"></line></g><g transform="translate(31.171875, 0)"><text x="0" y="123.04099043234666" dx="0em" dy="0.3em" style="text-anchor: end; visibility: inherit; font-family: Roboto, sans-serif; font-size: 12px; font-weight: 200;" fill="rgb(33, 33, 33)" stroke="none" stroke-width="1px">0.7</text><text x="0" y="36.27353580363783" dx="0em" dy="0.3em" style="text-anchor: end; visibility: inherit; font-family: Roboto, sans-serif; font-size: 12px; font-weight: 200;" fill="rgb(33, 33, 33)" stroke="none" stroke-width="1px">0.8</text></g><line x1="41.171875" y1="0" x2="41.171875" y2="177" fill="rgb(0, 0, 0)" stroke="rgb(204, 204, 204)" stroke-width="1px"></line></g></g><g transform="translate(41, 0)" clip-path="url(#clip_0)"><clipPath id="clip_0"><rect width="288" height="177"></rect></clipPath><g><g><g><line x1="0" y1="0" x2="0" y2="177" fill="rgb(0, 0, 0)" stroke="rgb(66, 66, 66)" stroke-width="1px" opacity="0.25"></line><line x1="24.069010416666664" y1="0" x2="24.069010416666664" y2="177" fill="rgb(0, 0, 0)" stroke="rgb(66, 66, 66)" stroke-width="1px" opacity="0.25"></line><line x1="48.13802083333333" y1="0" x2="48.13802083333333" y2="177" fill="rgb(0, 0, 0)" stroke="rgb(66, 66, 66)" stroke-width="1px" opacity="0.25"></line><line x1="72.20703125" y1="0" x2="72.20703125" y2="177" fill="rgb(0, 0, 0)" stroke="rgb(66, 66, 66)" stroke-width="1px" opacity="0.25"></line><line x1="96.27604166666666" y1="0" x2="96.27604166666666" y2="177" fill="rgb(0, 0, 0)" stroke="rgb(66, 66, 66)" stroke-width="1px" opacity="0.25"></line><line x1="120.34505208333334" y1="0" x2="120.34505208333334" y2="177" fill="rgb(0, 0, 0)" stroke="rgb(66, 66, 66)" stroke-width="1px" opacity="0.25"></line><line x1="144.4140625" y1="0" x2="144.4140625" y2="177" fill="rgb(0, 0, 0)" stroke="rgb(66, 66, 66)" stroke-width="1px" opacity="0.25"></line><line x1="168.48307291666669" y1="0" x2="168.48307291666669" y2="177" fill="rgb(0, 0, 0)" stroke="rgb(66, 66, 66)" stroke-width="1px" opacity="0.25"></line><line x1="192.55208333333331" y1="0" x2="192.55208333333331" y2="177" fill="rgb(0, 0, 0)" stroke="rgb(66, 66, 66)" stroke-width="1px" opacity="0.25"></line><line x1="216.62109375" y1="0" x2="216.62109375" y2="177" fill="rgb(0, 0, 0)" stroke="rgb(66, 66, 66)" stroke-width="1px" opacity="0.25"></line><line x1="240.69010416666669" y1="0" x2="240.69010416666669" y2="177" fill="rgb(0, 0, 0)" stroke="rgb(66, 66, 66)" stroke-width="1px" opacity="0.25"></line><line x1="264.7591145833333" y1="0" x2="264.7591145833333" y2="177" fill="rgb(0, 0, 0)" stroke="rgb(66, 66, 66)" stroke-width="1px" opacity="0.25"></line><line x1="288.828125" y1="0" x2="288.828125" y2="177" fill="rgb(0, 0, 0)" stroke="rgb(66, 66, 66)" stroke-width="1px" opacity="0.25"></line></g><g><line x1="0" y1="123.04099043234666" x2="288.828125" y2="123.04099043234666" fill="rgb(0, 0, 0)" stroke="rgb(66, 66, 66)" stroke-width="1px" opacity="0.25"></line><line x1="0" y1="36.27353580363783" x2="288.828125" y2="36.27353580363783" fill="rgb(0, 0, 0)" stroke="rgb(66, 66, 66)" stroke-width="1px" opacity="0.25"></line></g></g></g><g><g><line x1="24.069010416666664" y1="0" x2="24.069010416666664" y2="177" fill="rgb(0, 0, 0)" stroke="rgb(153, 153, 153)" stroke-width="1.5px"></line></g></g><g><g><g><g><g><path stroke="rgb(238, 51, 119)" stroke-width="2px" d="M38.510416666666664,180.20333686787617L40.917317708333336,163.15951385561365L43.32421875,148.26826554363342L45.731119791666664,137.05083113120185L48.13802083333333,129.1641357642213L50.544921875,122.75172110945985L52.951822916666664,115.24038395248037L55.358723958333336,108.22562657977812L57.765625,102.42148635638242L60.17252604166667,96.60985349349902L62.579427083333336,89.24009515285921L64.986328125,82.68317202263417L67.39322916666667,77.80871445286895L69.80013020833333,74.2771099045473L72.20703125,71.63060585681924L74.61393229166667,69.54734260973703L77.02083333333333,68.44368966431759L79.427734375,67.3596408575034L81.83463541666667,67.21319931351901L84.24153645833334,67.06461355132176L86.6484375,65.79126709839502L89.05533854166667,65.00950262403502L91.46223958333333,63.84516666178939L93.869140625,62.993276757192625L96.27604166666666,62.18572696963777L98.68294270833333,60.87897555956057L101.08984375,59.16322868664149L103.49674479166667,57.48170222381841L105.90364583333333,55.82121748311084L108.310546875,54.10945306941501L110.71744791666667,52.629818742434004L113.12434895833333,51.21688757909371L115.53125,49.45609488164414L117.93815104166667,48.27401926189998L120.34505208333334,47.4810269792017L122.751953125,47.291682576034795L125.15885416666667,46.9284632128214L127.56575520833333,46.14720320951389L129.97265625,45.45170674670413L132.37955729166666,44.80468583903044L134.78645833333334,44.44069633383982L137.193359375,44.1081176864896L139.60026041666666,43.85709676550149L142.00716145833331,43.205383441790346L144.4140625,43.157546099803255L146.82096354166666,43.13061522570651L149.22786458333334,42.92416905912773L151.634765625,42.3619508850635L154.04166666666666,42.23666204224L156.44856770833331,41.847831080150144L158.85546875,41.81992521352166L161.26236979166666,41.867845983396975L163.66927083333334,41.8948269318503L166.076171875,41.78273184313546L168.48307291666669,41.655992749012825L170.88997395833334,41.58464951391662L173.296875,41.67174724215154L175.70377604166666,41.848062121333214L178.11067708333334,41.883688080910495L180.517578125,41.90374635558927L182.92447916666666,41.978702879354444L185.33138020833334,42.21192602701945L187.73828125,42.27956832970102L190.14518229166666,42.508760131935986L192.55208333333331,42.829030983479676L194.958984375,42.818159584844004L197.36588541666666,43.067039412377156L199.77278645833334,43.334787320556124L202.1796875,43.42176670556292L204.58658854166669,43.34314930325579L206.99348958333334,43.362669679015994L209.400390625,43.24608704880812L211.80729166666666,43.18046022987721L214.21419270833334,43.01598755876916L216.62109375,42.923407758525656L219.02799479166666,42.80754018389165L221.43489583333334,42.61486684785285L223.841796875,42.570138303309264L226.24869791666666,42.672392755680036L228.65559895833331,42.85744065414302L231.0625,42.96164581199875L233.46940104166666,43.02032066933075L235.87630208333334,42.925846948665054L238.283203125,42.745189739491245L240.69010416666669,42.57977321876376L243.09700520833334,42.48666224195876L245.50390625,42.49796096679072L247.91080729166666,42.440607276599195L250.31770833333334,42.28093588166885L252.724609375,42.00004545981384L255.13151041666666,41.71468503460991L257.53841145833337,41.61768899072028L259.9453125,41.62671555546103L262.3522135416667,41.63179756658135" style="fill: none;" fill="none"></path></g></g></g></g><g opacity="0.2"><g><g><g><path stroke="rgb(238, 51, 119)" stroke-width="2px" d="M33.696614583333336,194.76611151265647L36.103515625,168.40254997166076L38.510416666666664,149.22305054460628L40.917317708333336,142.21665038626227L43.32421875,129.75917554632903L45.731119791666664,122.95845535474061L48.13802083333333,119.17438397672089L50.544921875,114.59723708247172L52.951822916666664,105.69917419074612L55.358723958333336,99.30357959741289L57.765625,95.02182452081233L60.17252604166667,89.19970078697825L62.579427083333336,79.86793510511491L64.986328125,74.33254319727186L67.39322916666667,71.58243034634792L69.80013020833333,69.75543287304856L72.20703125,68.2368831330419L74.61393229166667,66.8732363085658L77.02083333333333,67.02458317905867L79.427734375,65.96569190666098L81.83463541666667,67.02458317905867L84.24153645833334,66.8732363085658L86.6484375,64.15444743499559L89.05533854166667,64.00371699051858L91.46223958333333,62.3481872501776L93.869140625,61.89740564070969L96.27604166666666,61.14681396862243L98.68294270833333,59.19931362902626L101.08984375,56.95943844666486L103.49674479166667,55.3217366365515L105.90364583333333,53.68820176645824L108.310546875,51.91076271073676L110.71744791666667,50.72851522451198L113.12434895833333,49.40108375570176L115.53125,47.19462432025326L117.93815104166667,46.75427929367834L120.34505208333334,46.460816067479605L122.751953125,47.04782589315493L125.15885416666667,46.460816067479605L127.56575520833333,45.14206553161974L129.97265625,44.55677404116314L132.37955729166666,43.972058261062585L134.78645833333334,43.972058261062585L137.193359375,43.6798975619567L139.60026041666666,43.53384197985935L142.00716145833331,42.36672428585468L144.4140625,43.09592103083379L146.82096354166666,43.09592103083379L149.22786458333334,42.65829501618065L151.634765625,41.63834493011496L154.04166666666666,42.07528432896837L156.44856770833331,41.34723140511534L158.85546875,41.78397502826698L161.26236979166666,41.92958893570306L163.66927083333334,41.92958893570306L166.076171875,41.63834493011496L168.48307291666669,41.49274746304569L170.88997395833334,41.49274746304569L173.296875,41.78397502826698L175.70377604166666,42.07528432896837L178.11067708333334,41.92958893570306L180.517578125,41.92958893570306L182.92447916666666,42.07528432896837L185.33138020833334,42.51251773713145L187.73828125,42.36672428585468L190.14518229166666,42.80415390916871L192.55208333333331,43.24187820211288L194.958984375,42.80415390916871L197.36588541666666,43.38781921977676L199.77278645833334,43.6798975619567L202.1796875,43.53384197985935L204.58658854166669,43.24187820211288L206.99348958333334,43.38781921977676L209.400390625,43.09592103083379L211.80729166666666,43.09592103083379L214.21419270833334,42.80415390916871L216.62109375,42.80415390916871L219.02799479166666,42.65829501618065L221.43489583333334,42.36672428585468L223.841796875,42.51251773713145L226.24869791666666,42.80415390916871L228.65559895833331,43.09592103083379L231.0625,43.09592103083379L233.46940104166666,43.09592103083379L235.87630208333334,42.80415390916871L238.283203125,42.51251773713145L240.69010416666669,42.36672428585468L243.09700520833334,42.36672428585468L245.50390625,42.51251773713145L247.91080729166666,42.36672428585468L250.31770833333334,42.07528432896837L252.724609375,41.63834493011496L255.13151041666666,41.34723140511534L257.53841145833337,41.49274746304569L259.9453125,41.63834493011496L262.3522135416667,41.63834493011496" style="fill: none;" fill="none"></path></g></g></g></g></g></g><g transform="translate(41, 177)" clip-path="url(#clip_1)"><clipPath id="clip_1"><rect width="288" height="23"></rect></clipPath><g><g><line x1="0" y1="0" x2="0" y2="5" style="visibility: inherit;" fill="rgb(0, 0, 0)" stroke="rgb(204, 204, 204)" stroke-width="1px"></line><line x1="24.069010416666664" y1="0" x2="24.069010416666664" y2="5" style="visibility: inherit;" fill="rgb(0, 0, 0)" stroke="rgb(204, 204, 204)" stroke-width="1px"></line><line x1="48.13802083333333" y1="0" x2="48.13802083333333" y2="5" style="visibility: inherit;" fill="rgb(0, 0, 0)" stroke="rgb(204, 204, 204)" stroke-width="1px"></line><line x1="72.20703125" y1="0" x2="72.20703125" y2="5" style="visibility: inherit;" fill="rgb(0, 0, 0)" stroke="rgb(204, 204, 204)" stroke-width="1px"></line><line x1="96.27604166666666" y1="0" x2="96.27604166666666" y2="5" style="visibility: inherit;" fill="rgb(0, 0, 0)" stroke="rgb(204, 204, 204)" stroke-width="1px"></line><line x1="120.34505208333334" y1="0" x2="120.34505208333334" y2="5" style="visibility: inherit;" fill="rgb(0, 0, 0)" stroke="rgb(204, 204, 204)" stroke-width="1px"></line><line x1="144.4140625" y1="0" x2="144.4140625" y2="5" style="visibility: inherit;" fill="rgb(0, 0, 0)" stroke="rgb(204, 204, 204)" stroke-width="1px"></line><line x1="168.48307291666669" y1="0" x2="168.48307291666669" y2="5" style="visibility: inherit;" fill="rgb(0, 0, 0)" stroke="rgb(204, 204, 204)" stroke-width="1px"></line><line x1="192.55208333333331" y1="0" x2="192.55208333333331" y2="5" style="visibility: inherit;" fill="rgb(0, 0, 0)" stroke="rgb(204, 204, 204)" stroke-width="1px"></line><line x1="216.62109375" y1="0" x2="216.62109375" y2="5" style="visibility: inherit;" fill="rgb(0, 0, 0)" stroke="rgb(204, 204, 204)" stroke-width="1px"></line><line x1="240.69010416666669" y1="0" x2="240.69010416666669" y2="5" style="visibility: inherit;" fill="rgb(0, 0, 0)" stroke="rgb(204, 204, 204)" stroke-width="1px"></line><line x1="264.7591145833333" y1="0" x2="264.7591145833333" y2="5" style="visibility: inherit;" fill="rgb(0, 0, 0)" stroke="rgb(204, 204, 204)" stroke-width="1px"></line><line x1="288.828125" y1="0" x2="288.828125" y2="5" style="visibility: inherit;" fill="rgb(0, 0, 0)" stroke="rgb(204, 204, 204)" stroke-width="1px"></line></g><g transform="translate(0, 8)"><text x="0" y="0" dx="0em" dy="0.95em" style="text-anchor: middle; visibility: hidden; font-family: Roboto, sans-serif; font-size: 12px; font-weight: 200;" fill="rgb(33, 33, 33)" stroke="none" stroke-width="1px">-10</text><text x="24.069010416666664" y="0" dx="0em" dy="0.95em" style="text-anchor: middle; visibility: inherit; font-family: Roboto, sans-serif; font-size: 12px; font-weight: 200;" fill="rgb(33, 33, 33)" stroke="none" stroke-width="1px">0</text><text x="48.13802083333333" y="0" dx="0em" dy="0.95em" style="text-anchor: middle; visibility: inherit; font-family: Roboto, sans-serif; font-size: 12px; font-weight: 200;" fill="rgb(33, 33, 33)" stroke="none" stroke-width="1px">10</text><text x="72.20703125" y="0" dx="0em" dy="0.95em" style="text-anchor: middle; visibility: inherit; font-family: Roboto, sans-serif; font-size: 12px; font-weight: 200;" fill="rgb(33, 33, 33)" stroke="none" stroke-width="1px">20</text><text x="96.27604166666666" y="0" dx="0em" dy="0.95em" style="text-anchor: middle; visibility: inherit; font-family: Roboto, sans-serif; font-size: 12px; font-weight: 200;" fill="rgb(33, 33, 33)" stroke="none" stroke-width="1px">30</text><text x="120.34505208333334" y="0" dx="0em" dy="0.95em" style="text-anchor: middle; visibility: inherit; font-family: Roboto, sans-serif; font-size: 12px; font-weight: 200;" fill="rgb(33, 33, 33)" stroke="none" stroke-width="1px">40</text><text x="144.4140625" y="0" dx="0em" dy="0.95em" style="text-anchor: middle; visibility: inherit; font-family: Roboto, sans-serif; font-size: 12px; font-weight: 200;" fill="rgb(33, 33, 33)" stroke="none" stroke-width="1px">50</text><text x="168.48307291666669" y="0" dx="0em" dy="0.95em" style="text-anchor: middle; visibility: inherit; font-family: Roboto, sans-serif; font-size: 12px; font-weight: 200;" fill="rgb(33, 33, 33)" stroke="none" stroke-width="1px">60</text><text x="192.55208333333331" y="0" dx="0em" dy="0.95em" style="text-anchor: middle; visibility: inherit; font-family: Roboto, sans-serif; font-size: 12px; font-weight: 200;" fill="rgb(33, 33, 33)" stroke="none" stroke-width="1px">70</text><text x="216.62109375" y="0" dx="0em" dy="0.95em" style="text-anchor: middle; visibility: inherit; font-family: Roboto, sans-serif; font-size: 12px; font-weight: 200;" fill="rgb(33, 33, 33)" stroke="none" stroke-width="1px">80</text><text x="240.69010416666669" y="0" dx="0em" dy="0.95em" style="text-anchor: middle; visibility: inherit; font-family: Roboto, sans-serif; font-size: 12px; font-weight: 200;" fill="rgb(33, 33, 33)" stroke="none" stroke-width="1px">90</text><text x="264.7591145833333" y="0" dx="0em" dy="0.95em" style="text-anchor: middle; visibility: inherit; font-family: Roboto, sans-serif; font-size: 12px; font-weight: 200;" fill="rgb(33, 33, 33)" stroke="none" stroke-width="1px">100</text><text x="288.828125" y="0" dx="0em" dy="0.95em" style="text-anchor: middle; visibility: hidden; font-family: Roboto, sans-serif; font-size: 12px; font-weight: 200;" fill="rgb(33, 33, 33)" stroke="none" stroke-width="1px">110</text></g><line x1="0" y1="0" x2="288.828125" y2="0" fill="rgb(0, 0, 0)" stroke="rgb(204, 204, 204)" stroke-width="1px"></line></g></g></g></g></svg>