<svg viewBox="0 0 330 200" xmlns="http://www.w3.org/2000/svg"><g><g><g><g><g><line x1="41.171875" y1="123.04099043234666" x2="36.171875" y2="123.04099043234666" style="visibility: inherit;" fill="rgb(0, 0, 0)" stroke="rgb(204, 204, 204)" stroke-width="1px"></line><line x1="41.171875" y1="36.27353580363783" x2="36.171875" y2="36.27353580363783" style="visibility: inherit;" fill="rgb(0, 0, 0)" stroke="rgb(204, 204, 204)" stroke-width="1px"></line></g><g transform="translate(31.171875, 0)"><text x="0" y="123.04099043234666" dx="0em" dy="0.3em" style="text-anchor: end; visibility: inherit; font-family: Roboto, sans-serif; font-size: 12px; font-weight: 200;" fill="rgb(33, 33, 33)" stroke="none" stroke-width="1px">0.7</text><text x="0" y="36.27353580363783" dx="0em" dy="0.3em" style="text-anchor: end; visibility: inherit; font-family: Roboto, sans-serif; font-size: 12px; font-weight: 200;" fill="rgb(33, 33, 33)" stroke="none" stroke-width="1px">0.8</text></g><line x1="41.171875" y1="0" x2="41.171875" y2="177" fill="rgb(0, 0, 0)" stroke="rgb(204, 204, 204)" stroke-width="1px"></line></g></g><g transform="translate(41, 0)" clip-path="url(#clip_0)"><clipPath id="clip_0"><rect width="288" height="177"></rect></clipPath><g><g><g><line x1="0" y1="0" x2="0" y2="177" fill="rgb(0, 0, 0)" stroke="rgb(66, 66, 66)" stroke-width="1px" opacity="0.25"></line><line x1="24.069010416666664" y1="0" x2="24.069010416666664" y2="177" fill="rgb(0, 0, 0)" stroke="rgb(66, 66, 66)" stroke-width="1px" opacity="0.25"></line><line x1="48.13802083333333" y1="0" x2="48.13802083333333" y2="177" fill="rgb(0, 0, 0)" stroke="rgb(66, 66, 66)" stroke-width="1px" opacity="0.25"></line><line x1="72.20703125" y1="0" x2="72.20703125" y2="177" fill="rgb(0, 0, 0)" stroke="rgb(66, 66, 66)" stroke-width="1px" opacity="0.25"></line><line x1="96.27604166666666" y1="0" x2="96.27604166666666" y2="177" fill="rgb(0, 0, 0)" stroke="rgb(66, 66, 66)" stroke-width="1px" opacity="0.25"></line><line x1="120.34505208333334" y1="0" x2="120.34505208333334" y2="177" fill="rgb(0, 0, 0)" stroke="rgb(66, 66, 66)" stroke-width="1px" opacity="0.25"></line><line x1="144.4140625" y1="0" x2="144.4140625" y2="177" fill="rgb(0, 0, 0)" stroke="rgb(66, 66, 66)" stroke-width="1px" opacity="0.25"></line><line x1="168.48307291666669" y1="0" x2="168.48307291666669" y2="177" fill="rgb(0, 0, 0)" stroke="rgb(66, 66, 66)" stroke-width="1px" opacity="0.25"></line><line x1="192.55208333333331" y1="0" x2="192.55208333333331" y2="177" fill="rgb(0, 0, 0)" stroke="rgb(66, 66, 66)" stroke-width="1px" opacity="0.25"></line><line x1="216.62109375" y1="0" x2="216.62109375" y2="177" fill="rgb(0, 0, 0)" stroke="rgb(66, 66, 66)" stroke-width="1px" opacity="0.25"></line><line x1="240.69010416666669" y1="0" x2="240.69010416666669" y2="177" fill="rgb(0, 0, 0)" stroke="rgb(66, 66, 66)" stroke-width="1px" opacity="0.25"></line><line x1="264.7591145833333" y1="0" x2="264.7591145833333" y2="177" fill="rgb(0, 0, 0)" stroke="rgb(66, 66, 66)" stroke-width="1px" opacity="0.25"></line><line x1="288.828125" y1="0" x2="288.828125" y2="177" fill="rgb(0, 0, 0)" stroke="rgb(66, 66, 66)" stroke-width="1px" opacity="0.25"></line></g><g><line x1="0" y1="123.04099043234666" x2="288.828125" y2="123.04099043234666" fill="rgb(0, 0, 0)" stroke="rgb(66, 66, 66)" stroke-width="1px" opacity="0.25"></line><line x1="0" y1="36.27353580363783" x2="288.828125" y2="36.27353580363783" fill="rgb(0, 0, 0)" stroke="rgb(66, 66, 66)" stroke-width="1px" opacity="0.25"></line></g></g></g><g><g><line x1="24.069010416666664" y1="0" x2="24.069010416666664" y2="177" fill="rgb(0, 0, 0)" stroke="rgb(153, 153, 153)" stroke-width="1.5px"></line></g></g><g><g><g><g><g><path stroke="rgb(0, 153, 136)" stroke-width="2px" d="M33.696614583333336,210.21535904517864L36.103515625,153.64688051040426L38.510416666666664,125.42918690998673L40.917317708333336,111.04274773569541L43.32421875,103.03795705274045L45.731119791666664,97.90864053164634L48.13802083333333,94.91128336967152L50.544921875,93.57838587485108L52.951822916666664,93.31241655073919L55.358723958333336,92.81843217631209L57.765625,92.19657513860619L60.17252604166667,91.915540710862L62.579427083333336,92.03238451212954L64.986328125,92.1669266647046L67.39322916666667,91.83015432498102L69.80013020833333,91.84681387168902L72.20703125,93.16350496565637L74.61393229166667,92.52834989071958L77.02083333333333,92.30858238555331L79.427734375,91.84111895588154L81.83463541666667,89.24620812029306L84.24153645833334,86.08436066140142L86.6484375,79.16767598708559L89.05533854166667,71.96391235376073L91.46223958333333,65.16634844551005L93.869140625,58.229827534062196L96.27604166666666,53.708380532052956L98.68294270833333,50.78931593912507L101.08984375,48.379699863338836L103.49674479166667,47.54045047382876L105.90364583333333,46.61947873342401L108.310546875,45.78130826234026L110.71744791666667,44.5425286171006L113.12434895833333,43.5908057548619L115.53125,42.60941068229736L117.93815104166667,41.16681421128253L120.34505208333334,40.22905747901069L122.751953125,39.51141285954538L125.15885416666667,38.98098923339038L127.56575520833333,38.36594863156533L129.97265625,38.01993673755448L132.37955729166666,37.19299656500514L134.78645833333334,37.61252497170275L137.193359375,37.342993661846336L139.60026041666666,36.749116252612346L142.00716145833331,36.47812875229505L144.4140625,35.883999399750536L146.82096354166666,35.2976755695489L149.22786458333334,36.5440902362155L151.634765625,35.164737515835604L154.04166666666666,34.45235753300558L156.44856770833331,34.30323692281198L158.85546875,34.9116003518241L161.26236979166666,34.3729079757465L163.66927083333334,34.258515890941474L166.076171875,33.43976495927488L168.48307291666669,34.110333901928L170.88997395833334,33.105199706619935L173.296875,32.728244044945086L175.70377604166666,32.327924069396744L178.11067708333334,32.228055909885725L180.517578125,32.79918452065495L182.92447916666666,31.928926639546088L185.33138020833334,31.251605173075443L187.73828125,31.058352051460645L190.14518229166666,31.45046624707856L192.55208333333331,30.732145611555925L194.958984375,30.203042787156555L197.36588541666666,29.780391242422816L199.77278645833334,29.355228308828778L202.1796875,29.615462366324067L204.58658854166669,29.13759639423615L206.99348958333334,28.993493287616687L209.400390625,28.662870612488828L211.80729166666666,28.227443618749884L214.21419270833334,27.920140544517118L216.62109375,27.684908505505792L219.02799479166666,27.614781966036944L221.43489583333334,27.201828109161333L223.841796875,27.09386717538887L226.24869791666666,26.784306803536957L228.65559895833331,26.672249718733415L231.0625,26.547015575230645L233.46940104166666,26.10367425247044L235.87630208333334,26.04053037122676L238.283203125,26.00498306566853L240.69010416666669,25.798662457338594L243.09700520833334,25.682532772023933L245.50390625,25.182784254240946L247.91080729166666,24.777576411236396L250.31770833333334,24.611540032064564L252.724609375,24.828005302924854L255.13151041666666,24.515976023077044L257.53841145833337,24.340369441772708L259.9453125,24.30345817214694L262.3522135416667,24.592511634185783" style="fill: none;" fill="none"></path></g></g></g></g><g opacity="0.2"><g><g><g><path stroke="rgb(0, 153, 136)" stroke-width="2px" d="M28.8828125,537.0986689232424L31.289713541666668,155.61132604786832L33.696614583333336,76.78690913793339L36.103515625,90.92516851941765L38.510416666666664,91.86827709684418L40.917317708333336,93.28545864618391L43.32421875,92.97026806457644L45.731119791666664,91.3965517042401L48.13802083333333,91.0822231393118L50.544921875,91.86827709684418L52.951822916666664,92.97026806457644L55.358723958333336,92.18293346510747L57.765625,91.3965517042401L60.17252604166667,91.55372031272479L62.579427083333336,92.18293346510747L64.986328125,92.34029241845846L67.39322916666667,91.3965517042401L69.80013020833333,91.86827709684418L72.20703125,94.86376194035755L74.61393229166667,91.7109796705839L77.02083333333333,92.025559859503L79.427734375,91.23936841518494L81.83463541666667,85.91831415601568L84.24153645833334,82.03340984454925L86.6484375,70.3638784478448L89.05533854166667,62.79928179908998L91.46223958333333,56.512378454319666L93.869140625,49.40108375570176L96.27604166666666,47.92926219926049L98.68294270833333,47.04782589315493L101.08984375,45.288433998360446L103.49674479166667,46.460816067479605L105.90364583333333,45.43488454331337L108.310546875,44.70305975803456L110.71744791666667,42.950045550538654L113.12434895833333,42.36672428585468L115.53125,41.34723140511534L117.93815104166667,39.31298310965468L120.34505208333334,39.02290927892382L122.751953125,38.58801689332261L125.15885416666667,38.298266443046835L127.56575520833333,37.57443082457758L129.97265625,37.57443082457758L132.37955729166666,36.129174060243756L134.78645833333334,38.15341537815412L137.193359375,36.99591323873358L139.60026041666666,35.98480566873606L142.00716145833331,36.129174060243756L144.4140625,35.119364907752L146.82096354166666,34.54307629406174L149.22786458333334,38.15341537815412L151.634765625,33.39198190753001L154.04166666666666,33.53572710839214L156.44856770833331,34.11117086985791L158.85546875,35.696213446191734L161.26236979166666,33.679552335568424L163.66927083333334,34.11117086985791L166.076171875,32.38646239164642L168.48307291666669,34.975268989815866L170.88997395833334,31.81254330451979L173.296875,32.242923061934306L175.70377604166666,31.81254330451979L178.11067708333334,32.09941543318301L180.517578125,33.53572710839214L182.92447916666666,30.809463041911684L185.33138020833334,30.380031356881357L187.73828125,30.809463041911684L190.14518229166666,31.955987583953778L192.55208333333331,29.807880911623524L194.958984375,29.52201845468555L197.36588541666666,29.23628170193789L199.77278645833334,28.80788809641938L202.1796875,29.95088328593038L204.58658854166669,28.522465131516196L206.99348958333334,28.80788809641938L209.400390625,28.23716748466368L211.80729166666666,27.666899929106652L214.21419270833334,27.52444702966496L216.62109375,27.3819775979521L219.02799479166666,27.52444702966496L221.43489583333334,26.67019402453686L223.841796875,26.95480435306967L226.24869791666666,26.385708301632665L228.65559895833331,26.527911747954917L231.0625,26.385708301632665L233.46940104166666,25.532950057287856L235.87630208333334,25.95918928891709L238.283203125,25.95918928891709L240.69010416666669,25.532950057287856L243.09700520833334,25.532950057287856L245.50390625,24.539509526420375L247.91080729166666,24.255907384400686L250.31770833333334,24.397692983086777L252.724609375,25.106990239932927L255.13151041666666,24.114200232519924L257.53841145833337,24.114200232519924L259.9453125,24.255907384400686L262.3522135416667,24.965097381527926" style="fill: none;" fill="none"></path></g></g></g></g></g></g><g transform="translate(41, 177)" clip-path="url(#clip_1)"><clipPath id="clip_1"><rect width="288" height="23"></rect></clipPath><g><g><line x1="0" y1="0" x2="0" y2="5" style="visibility: inherit;" fill="rgb(0, 0, 0)" stroke="rgb(204, 204, 204)" stroke-width="1px"></line><line x1="24.069010416666664" y1="0" x2="24.069010416666664" y2="5" style="visibility: inherit;" fill="rgb(0, 0, 0)" stroke="rgb(204, 204, 204)" stroke-width="1px"></line><line x1="48.13802083333333" y1="0" x2="48.13802083333333" y2="5" style="visibility: inherit;" fill="rgb(0, 0, 0)" stroke="rgb(204, 204, 204)" stroke-width="1px"></line><line x1="72.20703125" y1="0" x2="72.20703125" y2="5" style="visibility: inherit;" fill="rgb(0, 0, 0)" stroke="rgb(204, 204, 204)" stroke-width="1px"></line><line x1="96.27604166666666" y1="0" x2="96.27604166666666" y2="5" style="visibility: inherit;" fill="rgb(0, 0, 0)" stroke="rgb(204, 204, 204)" stroke-width="1px"></line><line x1="120.34505208333334" y1="0" x2="120.34505208333334" y2="5" style="visibility: inherit;" fill="rgb(0, 0, 0)" stroke="rgb(204, 204, 204)" stroke-width="1px"></line><line x1="144.4140625" y1="0" x2="144.4140625" y2="5" style="visibility: inherit;" fill="rgb(0, 0, 0)" stroke="rgb(204, 204, 204)" stroke-width="1px"></line><line x1="168.48307291666669" y1="0" x2="168.48307291666669" y2="5" style="visibility: inherit;" fill="rgb(0, 0, 0)" stroke="rgb(204, 204, 204)" stroke-width="1px"></line><line x1="192.55208333333331" y1="0" x2="192.55208333333331" y2="5" style="visibility: inherit;" fill="rgb(0, 0, 0)" stroke="rgb(204, 204, 204)" stroke-width="1px"></line><line x1="216.62109375" y1="0" x2="216.62109375" y2="5" style="visibility: inherit;" fill="rgb(0, 0, 0)" stroke="rgb(204, 204, 204)" stroke-width="1px"></line><line x1="240.69010416666669" y1="0" x2="240.69010416666669" y2="5" style="visibility: inherit;" fill="rgb(0, 0, 0)" stroke="rgb(204, 204, 204)" stroke-width="1px"></line><line x1="264.7591145833333" y1="0" x2="264.7591145833333" y2="5" style="visibility: inherit;" fill="rgb(0, 0, 0)" stroke="rgb(204, 204, 204)" stroke-width="1px"></line><line x1="288.828125" y1="0" x2="288.828125" y2="5" style="visibility: inherit;" fill="rgb(0, 0, 0)" stroke="rgb(204, 204, 204)" stroke-width="1px"></line></g><g transform="translate(0, 8)"><text x="0" y="0" dx="0em" dy="0.95em" style="text-anchor: middle; visibility: hidden; font-family: Roboto, sans-serif; font-size: 12px; font-weight: 200;" fill="rgb(33, 33, 33)" stroke="none" stroke-width="1px">-10</text><text x="24.069010416666664" y="0" dx="0em" dy="0.95em" style="text-anchor: middle; visibility: inherit; font-family: Roboto, sans-serif; font-size: 12px; font-weight: 200;" fill="rgb(33, 33, 33)" stroke="none" stroke-width="1px">0</text><text x="48.13802083333333" y="0" dx="0em" dy="0.95em" style="text-anchor: middle; visibility: inherit; font-family: Roboto, sans-serif; font-size: 12px; font-weight: 200;" fill="rgb(33, 33, 33)" stroke="none" stroke-width="1px">10</text><text x="72.20703125" y="0" dx="0em" dy="0.95em" style="text-anchor: middle; visibility: inherit; font-family: Roboto, sans-serif; font-size: 12px; font-weight: 200;" fill="rgb(33, 33, 33)" stroke="none" stroke-width="1px">20</text><text x="96.27604166666666" y="0" dx="0em" dy="0.95em" style="text-anchor: middle; visibility: inherit; font-family: Roboto, sans-serif; font-size: 12px; font-weight: 200;" fill="rgb(33, 33, 33)" stroke="none" stroke-width="1px">30</text><text x="120.34505208333334" y="0" dx="0em" dy="0.95em" style="text-anchor: middle; visibility: inherit; font-family: Roboto, sans-serif; font-size: 12px; font-weight: 200;" fill="rgb(33, 33, 33)" stroke="none" stroke-width="1px">40</text><text x="144.4140625" y="0" dx="0em" dy="0.95em" style="text-anchor: middle; visibility: inherit; font-family: Roboto, sans-serif; font-size: 12px; font-weight: 200;" fill="rgb(33, 33, 33)" stroke="none" stroke-width="1px">50</text><text x="168.48307291666669" y="0" dx="0em" dy="0.95em" style="text-anchor: middle; visibility: inherit; font-family: Roboto, sans-serif; font-size: 12px; font-weight: 200;" fill="rgb(33, 33, 33)" stroke="none" stroke-width="1px">60</text><text x="192.55208333333331" y="0" dx="0em" dy="0.95em" style="text-anchor: middle; visibility: inherit; font-family: Roboto, sans-serif; font-size: 12px; font-weight: 200;" fill="rgb(33, 33, 33)" stroke="none" stroke-width="1px">70</text><text x="216.62109375" y="0" dx="0em" dy="0.95em" style="text-anchor: middle; visibility: inherit; font-family: Roboto, sans-serif; font-size: 12px; font-weight: 200;" fill="rgb(33, 33, 33)" stroke="none" stroke-width="1px">80</text><text x="240.69010416666669" y="0" dx="0em" dy="0.95em" style="text-anchor: middle; visibility: inherit; font-family: Roboto, sans-serif; font-size: 12px; font-weight: 200;" fill="rgb(33, 33, 33)" stroke="none" stroke-width="1px">90</text><text x="264.7591145833333" y="0" dx="0em" dy="0.95em" style="text-anchor: middle; visibility: inherit; font-family: Roboto, sans-serif; font-size: 12px; font-weight: 200;" fill="rgb(33, 33, 33)" stroke="none" stroke-width="1px">100</text><text x="288.828125" y="0" dx="0em" dy="0.95em" style="text-anchor: middle; visibility: hidden; font-family: Roboto, sans-serif; font-size: 12px; font-weight: 200;" fill="rgb(33, 33, 33)" stroke="none" stroke-width="1px">110</text></g><line x1="0" y1="0" x2="288.828125" y2="0" fill="rgb(0, 0, 0)" stroke="rgb(204, 204, 204)" stroke-width="1px"></line></g></g></g></g></svg>