<svg viewBox="0 0 330 200" xmlns="http://www.w3.org/2000/svg"><g><g><g><g><g><line x1="41.171875" y1="123.04099043234666" x2="36.171875" y2="123.04099043234666" style="visibility: inherit;" fill="rgb(0, 0, 0)" stroke="rgb(204, 204, 204)" stroke-width="1px"></line><line x1="41.171875" y1="36.27353580363783" x2="36.171875" y2="36.27353580363783" style="visibility: inherit;" fill="rgb(0, 0, 0)" stroke="rgb(204, 204, 204)" stroke-width="1px"></line></g><g transform="translate(31.171875, 0)"><text x="0" y="123.04099043234666" dx="0em" dy="0.3em" style="text-anchor: end; visibility: inherit; font-family: Roboto, sans-serif; font-size: 12px; font-weight: 200;" fill="rgb(33, 33, 33)" stroke="none" stroke-width="1px">0.7</text><text x="0" y="36.27353580363783" dx="0em" dy="0.3em" style="text-anchor: end; visibility: inherit; font-family: Roboto, sans-serif; font-size: 12px; font-weight: 200;" fill="rgb(33, 33, 33)" stroke="none" stroke-width="1px">0.8</text></g><line x1="41.171875" y1="0" x2="41.171875" y2="177" fill="rgb(0, 0, 0)" stroke="rgb(204, 204, 204)" stroke-width="1px"></line></g></g><g transform="translate(41, 0)" clip-path="url(#clip_0)"><clipPath id="clip_0"><rect width="288" height="177"></rect></clipPath><g><g><g><line x1="0" y1="0" x2="0" y2="177" fill="rgb(0, 0, 0)" stroke="rgb(66, 66, 66)" stroke-width="1px" opacity="0.25"></line><line x1="24.069010416666664" y1="0" x2="24.069010416666664" y2="177" fill="rgb(0, 0, 0)" stroke="rgb(66, 66, 66)" stroke-width="1px" opacity="0.25"></line><line x1="48.13802083333333" y1="0" x2="48.13802083333333" y2="177" fill="rgb(0, 0, 0)" stroke="rgb(66, 66, 66)" stroke-width="1px" opacity="0.25"></line><line x1="72.20703125" y1="0" x2="72.20703125" y2="177" fill="rgb(0, 0, 0)" stroke="rgb(66, 66, 66)" stroke-width="1px" opacity="0.25"></line><line x1="96.27604166666666" y1="0" x2="96.27604166666666" y2="177" fill="rgb(0, 0, 0)" stroke="rgb(66, 66, 66)" stroke-width="1px" opacity="0.25"></line><line x1="120.34505208333334" y1="0" x2="120.34505208333334" y2="177" fill="rgb(0, 0, 0)" stroke="rgb(66, 66, 66)" stroke-width="1px" opacity="0.25"></line><line x1="144.4140625" y1="0" x2="144.4140625" y2="177" fill="rgb(0, 0, 0)" stroke="rgb(66, 66, 66)" stroke-width="1px" opacity="0.25"></line><line x1="168.48307291666669" y1="0" x2="168.48307291666669" y2="177" fill="rgb(0, 0, 0)" stroke="rgb(66, 66, 66)" stroke-width="1px" opacity="0.25"></line><line x1="192.55208333333331" y1="0" x2="192.55208333333331" y2="177" fill="rgb(0, 0, 0)" stroke="rgb(66, 66, 66)" stroke-width="1px" opacity="0.25"></line><line x1="216.62109375" y1="0" x2="216.62109375" y2="177" fill="rgb(0, 0, 0)" stroke="rgb(66, 66, 66)" stroke-width="1px" opacity="0.25"></line><line x1="240.69010416666669" y1="0" x2="240.69010416666669" y2="177" fill="rgb(0, 0, 0)" stroke="rgb(66, 66, 66)" stroke-width="1px" opacity="0.25"></line><line x1="264.7591145833333" y1="0" x2="264.7591145833333" y2="177" fill="rgb(0, 0, 0)" stroke="rgb(66, 66, 66)" stroke-width="1px" opacity="0.25"></line><line x1="288.828125" y1="0" x2="288.828125" y2="177" fill="rgb(0, 0, 0)" stroke="rgb(66, 66, 66)" stroke-width="1px" opacity="0.25"></line></g><g><line x1="0" y1="123.04099043234666" x2="288.828125" y2="123.04099043234666" fill="rgb(0, 0, 0)" stroke="rgb(66, 66, 66)" stroke-width="1px" opacity="0.25"></line><line x1="0" y1="36.27353580363783" x2="288.828125" y2="36.27353580363783" fill="rgb(0, 0, 0)" stroke="rgb(66, 66, 66)" stroke-width="1px" opacity="0.25"></line></g></g></g><g><g><line x1="24.069010416666664" y1="0" x2="24.069010416666664" y2="177" fill="rgb(0, 0, 0)" stroke="rgb(153, 153, 153)" stroke-width="1.5px"></line></g></g><g><g><g><g><g><path stroke="rgb(0, 119, 187)" stroke-width="2px" d="M28.8828125,260.58674008978494L31.289713541666668,171.85445101381254L33.696614583333336,128.8559081843317L36.103515625,107.30279531163627L38.510416666666664,96.64166715846493L40.917317708333336,90.98383667586513L43.32421875,87.58413738137435L45.731119791666664,84.25820978198269L48.13802083333333,81.45097361917942L50.544921875,77.04832062802765L52.951822916666664,72.37938226404249L55.358723958333336,68.50572011832926L57.765625,64.28988119796384L60.17252604166667,59.504341428936286L62.579427083333336,56.370072453165385L64.986328125,54.22287887685115L67.39322916666667,51.465016610520124L69.80013020833333,49.659803802987625L72.20703125,47.74588556076633L74.61393229166667,46.22215452456721L77.02083333333333,45.237902029654904L79.427734375,44.81228007663354L81.83463541666667,44.189406148283894L84.24153645833334,43.00958898268887L86.6484375,41.3279996889981L89.05533854166667,40.256167888843024L91.46223958333333,39.27304395059852L93.869140625,38.72019896742279L96.27604166666666,37.90287283089629L98.68294270833333,37.06398089767738L101.08984375,36.15038774705573L103.49674479166667,35.44750350173653L105.90364583333333,35.619200341961324L108.310546875,35.40072495771172L110.71744791666667,34.83687497250049L113.12434895833333,34.3308713925861L115.53125,33.41761253425886L117.93815104166667,32.84123141004733L120.34505208333334,32.266059296070246L122.751953125,32.19323067060229L125.15885416666667,32.08954478608007L127.56575520833333,32.15656663904391L129.97265625,32.25702107736269L132.37955729166666,32.250860206993245L134.78645833333334,32.18467449874443L137.193359375,31.896663179118757L139.60026041666666,31.296084988132606L142.00716145833331,30.582778720113012L144.4140625,29.744093975469283L146.82096354166666,29.709510335758143L149.22786458333334,29.690040556421433L151.634765625,29.616609553255948L154.04166666666666,29.51283269140858L156.44856770833331,29.579307037315097L158.85546875,29.679183929549247L161.26236979166666,29.922862045115256L163.66927083333334,29.935107178702978L166.076171875,30.004502356461998L168.48307291666669,29.731152978149943L170.88997395833334,29.702224910321224L173.296875,29.311248292045395L175.70377604166666,29.09123191782733L178.11067708333334,29.029802856536868L180.517578125,28.870439625775596L182.92447916666666,28.78073532037211L185.33138020833334,28.605485982326464L187.73828125,28.50684139688258L190.14518229166666,28.388980129213223L192.55208333333331,27.948728034334795L194.958984375,27.514196351737844L197.36588541666666,27.394156980722766L199.77278645833334,27.264361406769755L202.1796875,27.129066832666723L204.58658854166669,27.05290837999396L206.99348958333334,27.01003509816764L209.400390625,26.799303187687094L211.80729166666666,26.68069118455984L214.21419270833334,26.613922151799642L216.62109375,26.5763342047949L219.02799479166666,26.368701279368118L221.43489583333334,26.313980238076834L223.841796875,26.096780479950173L226.24869791666666,25.974528952065366L228.65559895833331,25.84362420258061L231.0625,25.769936430082392L233.46940104166666,25.790530144260035L235.87630208333334,25.80212469251459L238.283203125,25.68448165982459L240.69010416666669,25.680344543691287L243.09700520833334,25.243577254232132L245.50390625,24.99780637949633L247.91080729166666,24.79749089043675L250.31770833333334,24.684740434369747L252.724609375,24.311444010945376L255.13151041666666,23.915603318952506L257.53841145833337,23.630954122649033L259.9453125,23.594499975874054L262.3522135416667,23.573977191028415" style="fill: none;" fill="none"></path></g></g></g></g><g opacity="0.2"><g><g><g><path stroke="rgb(0, 119, 187)" stroke-width="2px" d="M26.475911458333332,354.39260431742184L28.8828125,149.39484915619371L31.289713541666668,89.51306725561275L33.696614583333336,82.3433384829668L36.103515625,82.03340984454925L38.510416666666664,83.58458548187174L40.917317708333336,83.89525504060592L43.32421875,83.274064385491L45.731119791666664,80.02239126849574L48.13802083333333,77.8635969315667L50.544921875,71.42996716707131L52.951822916666664,66.41930566490295L55.358723958333336,63.551785819994166L57.765625,58.9002271515777L60.17252604166667,53.39159094187873L62.579427083333336,52.35466686895452L64.986328125,51.46716159839451L67.39322916666667,47.92926219926049L69.80013020833333,47.3415051638981L72.20703125,45.288433998360446L74.61393229166667,44.26435038136932L77.02083333333333,43.972058261062585L79.427734375,44.26435038136932L81.83463541666667,43.38781921977676L84.24153645833334,41.49274746304569L86.6484375,39.167954322418694L89.05533854166667,38.87789660488313L91.46223958333333,38.00864513882851L93.869140625,38.00864513882851L96.27604166666666,36.85140062711396L98.68294270833333,35.98480566873606L101.08984375,34.975268989815866L103.49674479166667,34.54307629406174L105.90364583333333,35.840469345405836L108.310546875,35.119364907752L110.71744791666667,34.11117086985791L113.12434895833333,33.679552335568424L115.53125,32.242923061934306L117.93815104166667,32.09941543318301L120.34505208333334,31.52579776939769L122.751953125,32.09941543318301L125.15885416666667,31.955987583953778L127.56575520833333,32.242923061934306L129.97265625,32.38646239164642L132.37955729166666,32.242923061934306L134.78645833333334,32.09941543318301L137.193359375,31.52579776939769L139.60026041666666,30.5231597162509L142.00716145833331,29.66495792486624L144.4140625,28.66518486713955L146.82096354166666,29.66495792486624L149.22786458333334,29.66495792486624L151.634765625,29.52201845468555L154.04166666666666,29.379158323308847L156.44856770833331,29.66495792486624L158.85546875,29.807880911623524L161.26236979166666,30.236934517225066L163.66927083333334,29.95088328593038L166.076171875,30.09391713834421L168.48307291666669,29.379158323308847L170.88997395833334,29.66495792486624L173.296875,28.80788809641938L175.70377604166666,28.80788809641938L178.11067708333334,28.95067054287562L180.517578125,28.66518486713955L182.92447916666666,28.66518486713955L185.33138020833334,28.37977673590859L187.73828125,28.37977673590859L190.14518229166666,28.23716748466368L192.55208333333331,27.3819775979521L194.958984375,26.95480435306967L197.36588541666666,27.239539396434257L199.77278645833334,27.09718014571254L202.1796875,26.95480435306967L204.58658854166669,26.95480435306967L206.99348958333334,26.95480435306967L209.400390625,26.527911747954917L211.80729166666666,26.527911747954917L214.21419270833334,26.527911747954917L216.62109375,26.527911747954917L219.02799479166666,26.101299414106382L221.43489583333334,26.24348829739425L223.841796875,25.817062596267018L226.24869791666666,25.817062596267018L228.65559895833331,25.675014613678293L231.0625,25.675014613678293L233.46940104166666,25.817062596267018L235.87630208333334,25.817062596267018L238.283203125,25.532950057287856L240.69010416666669,25.675014613678293L243.09700520833334,24.681309470761242L245.50390625,24.681309470761242L247.91080729166666,24.539509526420375L250.31770833333334,24.539509526420375L252.724609375,23.830831111138874L255.13151041666666,23.405985266108015L257.53841145833337,23.264415871389335L259.9453125,23.547538036919118L262.3522135416667,23.547538036919118" style="fill: none;" fill="none"></path></g></g></g></g></g></g><g transform="translate(41, 177)" clip-path="url(#clip_1)"><clipPath id="clip_1"><rect width="288" height="23"></rect></clipPath><g><g><line x1="0" y1="0" x2="0" y2="5" style="visibility: inherit;" fill="rgb(0, 0, 0)" stroke="rgb(204, 204, 204)" stroke-width="1px"></line><line x1="24.069010416666664" y1="0" x2="24.069010416666664" y2="5" style="visibility: inherit;" fill="rgb(0, 0, 0)" stroke="rgb(204, 204, 204)" stroke-width="1px"></line><line x1="48.13802083333333" y1="0" x2="48.13802083333333" y2="5" style="visibility: inherit;" fill="rgb(0, 0, 0)" stroke="rgb(204, 204, 204)" stroke-width="1px"></line><line x1="72.20703125" y1="0" x2="72.20703125" y2="5" style="visibility: inherit;" fill="rgb(0, 0, 0)" stroke="rgb(204, 204, 204)" stroke-width="1px"></line><line x1="96.27604166666666" y1="0" x2="96.27604166666666" y2="5" style="visibility: inherit;" fill="rgb(0, 0, 0)" stroke="rgb(204, 204, 204)" stroke-width="1px"></line><line x1="120.34505208333334" y1="0" x2="120.34505208333334" y2="5" style="visibility: inherit;" fill="rgb(0, 0, 0)" stroke="rgb(204, 204, 204)" stroke-width="1px"></line><line x1="144.4140625" y1="0" x2="144.4140625" y2="5" style="visibility: inherit;" fill="rgb(0, 0, 0)" stroke="rgb(204, 204, 204)" stroke-width="1px"></line><line x1="168.48307291666669" y1="0" x2="168.48307291666669" y2="5" style="visibility: inherit;" fill="rgb(0, 0, 0)" stroke="rgb(204, 204, 204)" stroke-width="1px"></line><line x1="192.55208333333331" y1="0" x2="192.55208333333331" y2="5" style="visibility: inherit;" fill="rgb(0, 0, 0)" stroke="rgb(204, 204, 204)" stroke-width="1px"></line><line x1="216.62109375" y1="0" x2="216.62109375" y2="5" style="visibility: inherit;" fill="rgb(0, 0, 0)" stroke="rgb(204, 204, 204)" stroke-width="1px"></line><line x1="240.69010416666669" y1="0" x2="240.69010416666669" y2="5" style="visibility: inherit;" fill="rgb(0, 0, 0)" stroke="rgb(204, 204, 204)" stroke-width="1px"></line><line x1="264.7591145833333" y1="0" x2="264.7591145833333" y2="5" style="visibility: inherit;" fill="rgb(0, 0, 0)" stroke="rgb(204, 204, 204)" stroke-width="1px"></line><line x1="288.828125" y1="0" x2="288.828125" y2="5" style="visibility: inherit;" fill="rgb(0, 0, 0)" stroke="rgb(204, 204, 204)" stroke-width="1px"></line></g><g transform="translate(0, 8)"><text x="0" y="0" dx="0em" dy="0.95em" style="text-anchor: middle; visibility: hidden; font-family: Roboto, sans-serif; font-size: 12px; font-weight: 200;" fill="rgb(33, 33, 33)" stroke="none" stroke-width="1px">-10</text><text x="24.069010416666664" y="0" dx="0em" dy="0.95em" style="text-anchor: middle; visibility: inherit; font-family: Roboto, sans-serif; font-size: 12px; font-weight: 200;" fill="rgb(33, 33, 33)" stroke="none" stroke-width="1px">0</text><text x="48.13802083333333" y="0" dx="0em" dy="0.95em" style="text-anchor: middle; visibility: inherit; font-family: Roboto, sans-serif; font-size: 12px; font-weight: 200;" fill="rgb(33, 33, 33)" stroke="none" stroke-width="1px">10</text><text x="72.20703125" y="0" dx="0em" dy="0.95em" style="text-anchor: middle; visibility: inherit; font-family: Roboto, sans-serif; font-size: 12px; font-weight: 200;" fill="rgb(33, 33, 33)" stroke="none" stroke-width="1px">20</text><text x="96.27604166666666" y="0" dx="0em" dy="0.95em" style="text-anchor: middle; visibility: inherit; font-family: Roboto, sans-serif; font-size: 12px; font-weight: 200;" fill="rgb(33, 33, 33)" stroke="none" stroke-width="1px">30</text><text x="120.34505208333334" y="0" dx="0em" dy="0.95em" style="text-anchor: middle; visibility: inherit; font-family: Roboto, sans-serif; font-size: 12px; font-weight: 200;" fill="rgb(33, 33, 33)" stroke="none" stroke-width="1px">40</text><text x="144.4140625" y="0" dx="0em" dy="0.95em" style="text-anchor: middle; visibility: inherit; font-family: Roboto, sans-serif; font-size: 12px; font-weight: 200;" fill="rgb(33, 33, 33)" stroke="none" stroke-width="1px">50</text><text x="168.48307291666669" y="0" dx="0em" dy="0.95em" style="text-anchor: middle; visibility: inherit; font-family: Roboto, sans-serif; font-size: 12px; font-weight: 200;" fill="rgb(33, 33, 33)" stroke="none" stroke-width="1px">60</text><text x="192.55208333333331" y="0" dx="0em" dy="0.95em" style="text-anchor: middle; visibility: inherit; font-family: Roboto, sans-serif; font-size: 12px; font-weight: 200;" fill="rgb(33, 33, 33)" stroke="none" stroke-width="1px">70</text><text x="216.62109375" y="0" dx="0em" dy="0.95em" style="text-anchor: middle; visibility: inherit; font-family: Roboto, sans-serif; font-size: 12px; font-weight: 200;" fill="rgb(33, 33, 33)" stroke="none" stroke-width="1px">80</text><text x="240.69010416666669" y="0" dx="0em" dy="0.95em" style="text-anchor: middle; visibility: inherit; font-family: Roboto, sans-serif; font-size: 12px; font-weight: 200;" fill="rgb(33, 33, 33)" stroke="none" stroke-width="1px">90</text><text x="264.7591145833333" y="0" dx="0em" dy="0.95em" style="text-anchor: middle; visibility: inherit; font-family: Roboto, sans-serif; font-size: 12px; font-weight: 200;" fill="rgb(33, 33, 33)" stroke="none" stroke-width="1px">100</text><text x="288.828125" y="0" dx="0em" dy="0.95em" style="text-anchor: middle; visibility: hidden; font-family: Roboto, sans-serif; font-size: 12px; font-weight: 200;" fill="rgb(33, 33, 33)" stroke="none" stroke-width="1px">110</text></g><line x1="0" y1="0" x2="288.828125" y2="0" fill="rgb(0, 0, 0)" stroke="rgb(204, 204, 204)" stroke-width="1px"></line></g></g></g></g></svg>