<svg viewBox="0 0 330 200" xmlns="http://www.w3.org/2000/svg"><g><g><g><g><g><line x1="41.171875" y1="123.04099043234666" x2="36.171875" y2="123.04099043234666" style="visibility: inherit;" fill="rgb(0, 0, 0)" stroke="rgb(204, 204, 204)" stroke-width="1px"></line><line x1="41.171875" y1="36.27353580363783" x2="36.171875" y2="36.27353580363783" style="visibility: inherit;" fill="rgb(0, 0, 0)" stroke="rgb(204, 204, 204)" stroke-width="1px"></line></g><g transform="translate(31.171875, 0)"><text x="0" y="123.04099043234666" dx="0em" dy="0.3em" style="text-anchor: end; visibility: inherit; font-family: Roboto, sans-serif; font-size: 12px; font-weight: 200;" fill="rgb(33, 33, 33)" stroke="none" stroke-width="1px">0.7</text><text x="0" y="36.27353580363783" dx="0em" dy="0.3em" style="text-anchor: end; visibility: inherit; font-family: Roboto, sans-serif; font-size: 12px; font-weight: 200;" fill="rgb(33, 33, 33)" stroke="none" stroke-width="1px">0.8</text></g><line x1="41.171875" y1="0" x2="41.171875" y2="177" fill="rgb(0, 0, 0)" stroke="rgb(204, 204, 204)" stroke-width="1px"></line></g></g><g transform="translate(41, 0)" clip-path="url(#clip_0)"><clipPath id="clip_0"><rect width="288" height="177"></rect></clipPath><g><g><g><line x1="0" y1="0" x2="0" y2="177" fill="rgb(0, 0, 0)" stroke="rgb(66, 66, 66)" stroke-width="1px" opacity="0.25"></line><line x1="24.069010416666664" y1="0" x2="24.069010416666664" y2="177" fill="rgb(0, 0, 0)" stroke="rgb(66, 66, 66)" stroke-width="1px" opacity="0.25"></line><line x1="48.13802083333333" y1="0" x2="48.13802083333333" y2="177" fill="rgb(0, 0, 0)" stroke="rgb(66, 66, 66)" stroke-width="1px" opacity="0.25"></line><line x1="72.20703125" y1="0" x2="72.20703125" y2="177" fill="rgb(0, 0, 0)" stroke="rgb(66, 66, 66)" stroke-width="1px" opacity="0.25"></line><line x1="96.27604166666666" y1="0" x2="96.27604166666666" y2="177" fill="rgb(0, 0, 0)" stroke="rgb(66, 66, 66)" stroke-width="1px" opacity="0.25"></line><line x1="120.34505208333334" y1="0" x2="120.34505208333334" y2="177" fill="rgb(0, 0, 0)" stroke="rgb(66, 66, 66)" stroke-width="1px" opacity="0.25"></line><line x1="144.4140625" y1="0" x2="144.4140625" y2="177" fill="rgb(0, 0, 0)" stroke="rgb(66, 66, 66)" stroke-width="1px" opacity="0.25"></line><line x1="168.48307291666669" y1="0" x2="168.48307291666669" y2="177" fill="rgb(0, 0, 0)" stroke="rgb(66, 66, 66)" stroke-width="1px" opacity="0.25"></line><line x1="192.55208333333331" y1="0" x2="192.55208333333331" y2="177" fill="rgb(0, 0, 0)" stroke="rgb(66, 66, 66)" stroke-width="1px" opacity="0.25"></line><line x1="216.62109375" y1="0" x2="216.62109375" y2="177" fill="rgb(0, 0, 0)" stroke="rgb(66, 66, 66)" stroke-width="1px" opacity="0.25"></line><line x1="240.69010416666669" y1="0" x2="240.69010416666669" y2="177" fill="rgb(0, 0, 0)" stroke="rgb(66, 66, 66)" stroke-width="1px" opacity="0.25"></line><line x1="264.7591145833333" y1="0" x2="264.7591145833333" y2="177" fill="rgb(0, 0, 0)" stroke="rgb(66, 66, 66)" stroke-width="1px" opacity="0.25"></line><line x1="288.828125" y1="0" x2="288.828125" y2="177" fill="rgb(0, 0, 0)" stroke="rgb(66, 66, 66)" stroke-width="1px" opacity="0.25"></line></g><g><line x1="0" y1="123.04099043234666" x2="288.828125" y2="123.04099043234666" fill="rgb(0, 0, 0)" stroke="rgb(66, 66, 66)" stroke-width="1px" opacity="0.25"></line><line x1="0" y1="36.27353580363783" x2="288.828125" y2="36.27353580363783" fill="rgb(0, 0, 0)" stroke="rgb(66, 66, 66)" stroke-width="1px" opacity="0.25"></line></g></g></g><g><g><line x1="24.069010416666664" y1="0" x2="24.069010416666664" y2="177" fill="rgb(0, 0, 0)" stroke="rgb(153, 153, 153)" stroke-width="1.5px"></line></g></g><g><g><g><g><g><path stroke="rgb(204, 51, 17)" stroke-width="2px" d="M26.475911458333332,203.6728350262048L28.8828125,149.54404453964784L31.289713541666668,112.86413358577151L33.696614583333336,85.57577951201996L36.103515625,67.49144591030503L38.510416666666664,58.780424937396845L40.917317708333336,56.06731337837316L43.32421875,54.04154512505432L45.731119791666664,51.48443474163825L48.13802083333333,47.54137801265588L50.544921875,43.993017497332154L52.951822916666664,41.87885087084521L55.358723958333336,41.13743257072499L57.765625,41.80173189638387L60.17252604166667,42.43074734587037L62.579427083333336,42.97636192267149L64.986328125,42.26390638064408L67.39322916666667,40.90913578739848L69.80013020833333,39.3229429303737L72.20703125,38.748264437423614L74.61393229166667,38.424946187586094L77.02083333333333,37.73683671969816L79.427734375,37.22333522976382L81.83463541666667,37.25033966435724L84.24153645833334,37.455148297391695L86.6484375,38.0132451558281L89.05533854166667,37.694959257004555L91.46223958333333,37.76876288003021L93.869140625,37.62058855792801L96.27604166666666,36.715779401842774L98.68294270833333,36.20692565399904L101.08984375,35.73143766912718L103.49674479166667,34.959898408229634L105.90364583333333,33.4569633256146L108.310546875,32.98893745159291L110.71744791666667,32.91387141876221L113.12434895833333,33.122762428180906L115.53125,33.55451197701466L117.93815104166667,33.483481335625214L120.34505208333334,33.883430445954346L122.751953125,34.10871015351935L125.15885416666667,34.23557700166156L127.56575520833333,34.24411876517753L129.97265625,33.62015856948417L132.37955729166666,33.646112977432296L134.78645833333334,33.849302332699594L137.193359375,33.649413711897L139.60026041666666,33.41124711965458L142.00716145833331,33.1515705310092L144.4140625,32.87986463715394L146.82096354166666,32.726944191674455L149.22786458333334,32.32719270240113L151.634765625,32.102240770977886L154.04166666666666,32.03832407875073L156.44856770833331,32.0023417470909L158.85546875,32.1701745361936L161.26236979166666,32.139251860298856L163.66927083333334,32.12184304121579L166.076171875,32.17475223485473L168.48307291666669,32.016442094401114L170.88997395833334,31.927330452377745L173.296875,31.689160792701024L175.70377604166666,31.617766099108877L178.11067708333334,31.452296277786203L180.517578125,31.296523809764043L182.92447916666666,31.27146338129026L185.33138020833334,31.319961508866275L187.73828125,31.28465819299042L190.14518229166666,31.32739070936526L192.55208333333331,31.47670896935542L194.958984375,31.31026474778352L197.36588541666666,31.21657540627376L199.77278645833334,31.101221577713734L202.1796875,31.161505244150323L204.58658854166669,31.258048168092497L206.99348958333334,31.249802150181047L209.400390625,31.37039781519024L211.80729166666666,31.438303023415287L214.21419270833334,31.28864745887317L216.62109375,31.14178995719601L219.02799479166666,30.996542186532018L221.43489583333334,30.727054994983334L223.841796875,30.57538286621617L226.24869791666666,30.490007031844257L228.65559895833331,30.50449454685359L231.0625,30.45010120010824L233.46940104166666,30.41947974911548L235.87630208333334,30.33970117418693L238.283203125,30.169759135693432L240.69010416666669,30.074101319745836L243.09700520833334,30.082760758135507L245.50390625,30.15013019095672L247.91080729166666,30.125564488743183L250.31770833333334,30.049223026363464L252.724609375,30.131246277302083L255.13151041666666,30.17742992350704L257.53841145833337,30.01591115053578L259.9453125,30.04999861524106L262.3522135416667,29.881707765615452" style="fill: none;" fill="none"></path></g></g></g></g><g opacity="0.2"><g><g><g><path stroke="rgb(204, 51, 17)" stroke-width="2px" d="M26.475911458333332,177.4907139383866L28.8828125,105.37790576990608L31.289713541666668,76.17242225288128L33.696614583333336,55.3217366365515L36.103515625,46.167534473442245L38.510416666666664,48.076309215600034L40.917317708333336,52.650754988199395L43.32421875,51.46716159839451L45.731119791666664,48.22338951607251L48.13802083333333,42.51251773713145L50.544921875,39.458092924566564L52.951822916666664,39.167954322418694L55.358723958333336,40.18403107071671L57.765625,42.65829501618065L60.17252604166667,43.24187820211288L62.579427083333336,43.6798975619567L64.986328125,41.34723140511534L67.39322916666667,39.167954322418694L69.80013020833333,37.28513189318974L72.20703125,38.00864513882851L74.61393229166667,38.00864513882851L77.02083333333333,36.85140062711396L79.427734375,36.56237491699321L81.83463541666667,37.28513189318974L84.24153645833334,37.71910434459094L86.6484375,38.73296488261777L89.05533854166667,37.28513189318974L91.46223958333333,37.86385861461811L93.869140625,37.42974100902374L96.27604166666666,35.55194120575781L98.68294270833333,35.55194120575781L101.08984375,35.119364907752L103.49674479166667,33.96725008671126L105.90364583333333,31.52579776939769L108.310546875,32.38646239164642L110.71744791666667,32.81717441398687L113.12434895833333,33.39198190753001L115.53125,34.11117086985791L117.93815104166667,33.39198190753001L120.34505208333334,34.39905982788755L122.751953125,34.39905982788755L125.15885416666667,34.39905982788755L127.56575520833333,34.25512353678071L129.97265625,32.81717441398687L132.37955729166666,33.679552335568424L134.78645833333334,34.11117086985791L137.193359375,33.39198190753001L139.60026041666666,33.10453868995L142.00716145833331,32.81717441398687L144.4140625,32.529985301262045L146.82096354166666,32.529985301262045L149.22786458333334,31.81254330451979L151.634765625,31.81254330451979L154.04166666666666,31.955987583953778L156.44856770833331,31.955987583953778L158.85546875,32.38646239164642L161.26236979166666,32.09941543318301L163.66927083333334,32.09941543318301L166.076171875,32.242923061934306L168.48307291666669,31.81254330451979L170.88997395833334,31.81254330451979L173.296875,31.38244841444247L175.70377604166666,31.52579776939769L178.11067708333334,31.239178716137317L180.517578125,31.09589257087201L182.92447916666666,31.239178716137317L185.33138020833334,31.38244841444247L187.73828125,31.239178716137317L190.14518229166666,31.38244841444247L192.55208333333331,31.669130684081036L194.958984375,31.09589257087201L197.36588541666666,31.09589257087201L199.77278645833334,30.952638014845796L202.1796875,31.239178716137317L204.58658854166669,31.38244841444247L206.99348958333334,31.239178716137317L209.400390625,31.52579776939769L211.80729166666666,31.52579776939769L214.21419270833334,31.09589257087201L216.62109375,30.952638014845796L219.02799479166666,30.809463041911684L221.43489583333334,30.380031356881357L223.841796875,30.380031356881357L226.24869791666666,30.380031356881357L228.65559895833331,30.5231597162509L231.0625,30.380031356881357L233.46940104166666,30.380031356881357L235.87630208333334,30.236934517225066L238.283203125,29.95088328593038L240.69010416666669,29.95088328593038L243.09700520833334,30.09391713834421L245.50390625,30.236934517225066L247.91080729166666,30.09391713834421L250.31770833333334,29.95088328593038L252.724609375,30.236934517225066L255.13151041666666,30.236934517225066L257.53841145833337,29.807880911623524L259.9453125,30.09391713834421L262.3522135416667,29.66495792486624" style="fill: none;" fill="none"></path></g></g></g></g></g></g><g transform="translate(41, 177)" clip-path="url(#clip_1)"><clipPath id="clip_1"><rect width="288" height="23"></rect></clipPath><g><g><line x1="0" y1="0" x2="0" y2="5" style="visibility: inherit;" fill="rgb(0, 0, 0)" stroke="rgb(204, 204, 204)" stroke-width="1px"></line><line x1="24.069010416666664" y1="0" x2="24.069010416666664" y2="5" style="visibility: inherit;" fill="rgb(0, 0, 0)" stroke="rgb(204, 204, 204)" stroke-width="1px"></line><line x1="48.13802083333333" y1="0" x2="48.13802083333333" y2="5" style="visibility: inherit;" fill="rgb(0, 0, 0)" stroke="rgb(204, 204, 204)" stroke-width="1px"></line><line x1="72.20703125" y1="0" x2="72.20703125" y2="5" style="visibility: inherit;" fill="rgb(0, 0, 0)" stroke="rgb(204, 204, 204)" stroke-width="1px"></line><line x1="96.27604166666666" y1="0" x2="96.27604166666666" y2="5" style="visibility: inherit;" fill="rgb(0, 0, 0)" stroke="rgb(204, 204, 204)" stroke-width="1px"></line><line x1="120.34505208333334" y1="0" x2="120.34505208333334" y2="5" style="visibility: inherit;" fill="rgb(0, 0, 0)" stroke="rgb(204, 204, 204)" stroke-width="1px"></line><line x1="144.4140625" y1="0" x2="144.4140625" y2="5" style="visibility: inherit;" fill="rgb(0, 0, 0)" stroke="rgb(204, 204, 204)" stroke-width="1px"></line><line x1="168.48307291666669" y1="0" x2="168.48307291666669" y2="5" style="visibility: inherit;" fill="rgb(0, 0, 0)" stroke="rgb(204, 204, 204)" stroke-width="1px"></line><line x1="192.55208333333331" y1="0" x2="192.55208333333331" y2="5" style="visibility: inherit;" fill="rgb(0, 0, 0)" stroke="rgb(204, 204, 204)" stroke-width="1px"></line><line x1="216.62109375" y1="0" x2="216.62109375" y2="5" style="visibility: inherit;" fill="rgb(0, 0, 0)" stroke="rgb(204, 204, 204)" stroke-width="1px"></line><line x1="240.69010416666669" y1="0" x2="240.69010416666669" y2="5" style="visibility: inherit;" fill="rgb(0, 0, 0)" stroke="rgb(204, 204, 204)" stroke-width="1px"></line><line x1="264.7591145833333" y1="0" x2="264.7591145833333" y2="5" style="visibility: inherit;" fill="rgb(0, 0, 0)" stroke="rgb(204, 204, 204)" stroke-width="1px"></line><line x1="288.828125" y1="0" x2="288.828125" y2="5" style="visibility: inherit;" fill="rgb(0, 0, 0)" stroke="rgb(204, 204, 204)" stroke-width="1px"></line></g><g transform="translate(0, 8)"><text x="0" y="0" dx="0em" dy="0.95em" style="text-anchor: middle; visibility: hidden; font-family: Roboto, sans-serif; font-size: 12px; font-weight: 200;" fill="rgb(33, 33, 33)" stroke="none" stroke-width="1px">-10</text><text x="24.069010416666664" y="0" dx="0em" dy="0.95em" style="text-anchor: middle; visibility: inherit; font-family: Roboto, sans-serif; font-size: 12px; font-weight: 200;" fill="rgb(33, 33, 33)" stroke="none" stroke-width="1px">0</text><text x="48.13802083333333" y="0" dx="0em" dy="0.95em" style="text-anchor: middle; visibility: inherit; font-family: Roboto, sans-serif; font-size: 12px; font-weight: 200;" fill="rgb(33, 33, 33)" stroke="none" stroke-width="1px">10</text><text x="72.20703125" y="0" dx="0em" dy="0.95em" style="text-anchor: middle; visibility: inherit; font-family: Roboto, sans-serif; font-size: 12px; font-weight: 200;" fill="rgb(33, 33, 33)" stroke="none" stroke-width="1px">20</text><text x="96.27604166666666" y="0" dx="0em" dy="0.95em" style="text-anchor: middle; visibility: inherit; font-family: Roboto, sans-serif; font-size: 12px; font-weight: 200;" fill="rgb(33, 33, 33)" stroke="none" stroke-width="1px">30</text><text x="120.34505208333334" y="0" dx="0em" dy="0.95em" style="text-anchor: middle; visibility: inherit; font-family: Roboto, sans-serif; font-size: 12px; font-weight: 200;" fill="rgb(33, 33, 33)" stroke="none" stroke-width="1px">40</text><text x="144.4140625" y="0" dx="0em" dy="0.95em" style="text-anchor: middle; visibility: inherit; font-family: Roboto, sans-serif; font-size: 12px; font-weight: 200;" fill="rgb(33, 33, 33)" stroke="none" stroke-width="1px">50</text><text x="168.48307291666669" y="0" dx="0em" dy="0.95em" style="text-anchor: middle; visibility: inherit; font-family: Roboto, sans-serif; font-size: 12px; font-weight: 200;" fill="rgb(33, 33, 33)" stroke="none" stroke-width="1px">60</text><text x="192.55208333333331" y="0" dx="0em" dy="0.95em" style="text-anchor: middle; visibility: inherit; font-family: Roboto, sans-serif; font-size: 12px; font-weight: 200;" fill="rgb(33, 33, 33)" stroke="none" stroke-width="1px">70</text><text x="216.62109375" y="0" dx="0em" dy="0.95em" style="text-anchor: middle; visibility: inherit; font-family: Roboto, sans-serif; font-size: 12px; font-weight: 200;" fill="rgb(33, 33, 33)" stroke="none" stroke-width="1px">80</text><text x="240.69010416666669" y="0" dx="0em" dy="0.95em" style="text-anchor: middle; visibility: inherit; font-family: Roboto, sans-serif; font-size: 12px; font-weight: 200;" fill="rgb(33, 33, 33)" stroke="none" stroke-width="1px">90</text><text x="264.7591145833333" y="0" dx="0em" dy="0.95em" style="text-anchor: middle; visibility: inherit; font-family: Roboto, sans-serif; font-size: 12px; font-weight: 200;" fill="rgb(33, 33, 33)" stroke="none" stroke-width="1px">100</text><text x="288.828125" y="0" dx="0em" dy="0.95em" style="text-anchor: middle; visibility: hidden; font-family: Roboto, sans-serif; font-size: 12px; font-weight: 200;" fill="rgb(33, 33, 33)" stroke="none" stroke-width="1px">110</text></g><line x1="0" y1="0" x2="288.828125" y2="0" fill="rgb(0, 0, 0)" stroke="rgb(204, 204, 204)" stroke-width="1px"></line></g></g></g></g></svg>