<svg viewBox="0 0 330 200" xmlns="http://www.w3.org/2000/svg"><g><g><g><g><g><line x1="41.171875" y1="123.04099043234666" x2="36.171875" y2="123.04099043234666" style="visibility: inherit;" fill="rgb(0, 0, 0)" stroke="rgb(204, 204, 204)" stroke-width="1px"></line><line x1="41.171875" y1="36.27353580363783" x2="36.171875" y2="36.27353580363783" style="visibility: inherit;" fill="rgb(0, 0, 0)" stroke="rgb(204, 204, 204)" stroke-width="1px"></line></g><g transform="translate(31.171875, 0)"><text x="0" y="123.04099043234666" dx="0em" dy="0.3em" style="text-anchor: end; visibility: inherit; font-family: Roboto, sans-serif; font-size: 12px; font-weight: 200;" fill="rgb(33, 33, 33)" stroke="none" stroke-width="1px">0.7</text><text x="0" y="36.27353580363783" dx="0em" dy="0.3em" style="text-anchor: end; visibility: inherit; font-family: Roboto, sans-serif; font-size: 12px; font-weight: 200;" fill="rgb(33, 33, 33)" stroke="none" stroke-width="1px">0.8</text></g><line x1="41.171875" y1="0" x2="41.171875" y2="177" fill="rgb(0, 0, 0)" stroke="rgb(204, 204, 204)" stroke-width="1px"></line></g></g><g transform="translate(41, 0)" clip-path="url(#clip_0)"><clipPath id="clip_0"><rect width="288" height="177"></rect></clipPath><g><g><g><line x1="0" y1="0" x2="0" y2="177" fill="rgb(0, 0, 0)" stroke="rgb(66, 66, 66)" stroke-width="1px" opacity="0.25"></line><line x1="24.069010416666664" y1="0" x2="24.069010416666664" y2="177" fill="rgb(0, 0, 0)" stroke="rgb(66, 66, 66)" stroke-width="1px" opacity="0.25"></line><line x1="48.13802083333333" y1="0" x2="48.13802083333333" y2="177" fill="rgb(0, 0, 0)" stroke="rgb(66, 66, 66)" stroke-width="1px" opacity="0.25"></line><line x1="72.20703125" y1="0" x2="72.20703125" y2="177" fill="rgb(0, 0, 0)" stroke="rgb(66, 66, 66)" stroke-width="1px" opacity="0.25"></line><line x1="96.27604166666666" y1="0" x2="96.27604166666666" y2="177" fill="rgb(0, 0, 0)" stroke="rgb(66, 66, 66)" stroke-width="1px" opacity="0.25"></line><line x1="120.34505208333334" y1="0" x2="120.34505208333334" y2="177" fill="rgb(0, 0, 0)" stroke="rgb(66, 66, 66)" stroke-width="1px" opacity="0.25"></line><line x1="144.4140625" y1="0" x2="144.4140625" y2="177" fill="rgb(0, 0, 0)" stroke="rgb(66, 66, 66)" stroke-width="1px" opacity="0.25"></line><line x1="168.48307291666669" y1="0" x2="168.48307291666669" y2="177" fill="rgb(0, 0, 0)" stroke="rgb(66, 66, 66)" stroke-width="1px" opacity="0.25"></line><line x1="192.55208333333331" y1="0" x2="192.55208333333331" y2="177" fill="rgb(0, 0, 0)" stroke="rgb(66, 66, 66)" stroke-width="1px" opacity="0.25"></line><line x1="216.62109375" y1="0" x2="216.62109375" y2="177" fill="rgb(0, 0, 0)" stroke="rgb(66, 66, 66)" stroke-width="1px" opacity="0.25"></line><line x1="240.69010416666669" y1="0" x2="240.69010416666669" y2="177" fill="rgb(0, 0, 0)" stroke="rgb(66, 66, 66)" stroke-width="1px" opacity="0.25"></line><line x1="264.7591145833333" y1="0" x2="264.7591145833333" y2="177" fill="rgb(0, 0, 0)" stroke="rgb(66, 66, 66)" stroke-width="1px" opacity="0.25"></line><line x1="288.828125" y1="0" x2="288.828125" y2="177" fill="rgb(0, 0, 0)" stroke="rgb(66, 66, 66)" stroke-width="1px" opacity="0.25"></line></g><g><line x1="0" y1="123.04099043234666" x2="288.828125" y2="123.04099043234666" fill="rgb(0, 0, 0)" stroke="rgb(66, 66, 66)" stroke-width="1px" opacity="0.25"></line><line x1="0" y1="36.27353580363783" x2="288.828125" y2="36.27353580363783" fill="rgb(0, 0, 0)" stroke="rgb(66, 66, 66)" stroke-width="1px" opacity="0.25"></line></g></g></g><g><g><line x1="24.069010416666664" y1="0" x2="24.069010416666664" y2="177" fill="rgb(0, 0, 0)" stroke="rgb(153, 153, 153)" stroke-width="1.5px"></line></g></g><g><g><g><g><g><path stroke="rgb(51, 187, 238)" stroke-width="2px" d="M26.475911458333332,253.50003341365263L28.8828125,171.7650521386786L31.289713541666668,128.31927607364165L33.696614583333336,105.05484836420779L36.103515625,90.22797892247539L38.510416666666664,81.1761108792702L40.917317708333336,74.82317313131034L43.32421875,69.37770912154156L45.731119791666664,65.29289327951557L48.13802083333333,60.90879270469741L50.544921875,58.19748111608104L52.951822916666664,55.31109123243668L55.358723958333336,52.26793288029843L57.765625,50.17458116328598L60.17252604166667,47.19974008913098L62.579427083333336,45.467088863822234L64.986328125,44.49370284922592L67.39322916666667,42.47940011232239L69.80013020833333,41.28451158585866L72.20703125,40.73982077547493L74.61393229166667,40.94162189225398L77.02083333333333,40.73750207269625L79.427734375,40.813219415746275L81.83463541666667,41.04652880518784L84.24153645833334,41.75037911814495L86.6484375,42.3380383191172L89.05533854166667,42.66912436343276L91.46223958333333,42.473240046937015L93.869140625,41.7263383022509L96.27604166666666,40.48003294121144L98.68294270833333,39.398879982623654L101.08984375,38.22110016674966L103.49674479166667,37.49571629740494L105.90364583333333,36.64557120737928L108.310546875,35.85204875392768L110.71744791666667,35.15370959696561L113.12434895833333,34.4461555944433L115.53125,33.54526641773219L117.93815104166667,32.85027334363324L120.34505208333334,32.89858894930439L122.751953125,32.8630095425173L125.15885416666667,32.40374687651372L127.56575520833333,32.45891005119447L129.97265625,32.11365837587519L132.37955729166666,31.856697864664046L134.78645833333334,31.586769802187458L137.193359375,30.808796209434544L139.60026041666666,30.05862689689294L142.00716145833331,29.949038998194855L144.4140625,29.63746787864214L146.82096354166666,29.64948088577613L149.22786458333334,29.656244306510064L151.634765625,29.722505149929322L154.04166666666666,29.759812977872183L156.44856770833331,29.843303791071758L158.85546875,29.827823755202814L161.26236979166666,29.694169134324305L163.66927083333334,29.181874555928275L166.076171875,28.706486263321093L168.48307291666669,28.563693992037795L170.88997395833334,28.545676658186775L173.296875,28.348492157879996L175.70377604166666,28.362163333190928L178.11067708333334,28.18286704593854L180.517578125,27.583664363792447L182.92447916666666,27.18431984599045L185.33138020833334,27.395163255206473L187.73828125,27.513898202728775L190.14518229166666,27.207297311631233L192.55208333333331,26.97252855952902L194.958984375,26.716022912020197L197.36588541666666,26.509483012058976L199.77278645833334,26.4553905632309L202.1796875,26.48708132528835L204.58658854166669,26.194198148513724L206.99348958333334,25.90514995105803L209.400390625,25.74247237043982L211.80729166666666,25.650902808601703L214.21419270833334,25.475223953146024L216.62109375,25.31428014941293L219.02799479166666,25.099627192095465L221.43489583333334,24.85479637572917L223.841796875,24.655002635714325L226.24869791666666,24.294711078377286L228.65559895833331,24.091954793671476L231.0625,23.915906746355407L233.46940104166666,23.94062711074757L235.87630208333334,24.016472861396547L238.283203125,24.059177914504136L240.69010416666669,23.9593804899452L243.09700520833334,23.841284305050937L245.50390625,23.651022751513462L247.91080729166666,23.79147846543992L250.31770833333334,23.808675278431195L252.724609375,23.57077783684287L255.13151041666666,23.436879888871783L257.53841145833337,23.175949728515736L259.9453125,23.029092136344467L262.3522135416667,23.008257676753068" style="fill: none;" fill="none"></path></g></g></g></g><g opacity="0.2"><g><g><g><path stroke="rgb(51, 187, 238)" stroke-width="2px" d="M26.475911458333332,221.66821345913598L28.8828125,107.46907644456111L31.289713541666668,85.29518739980868L33.696614583333336,79.0963079478151L36.103515625,72.65052182213499L38.510416666666664,70.0596099425647L40.917317708333336,66.8732363085658L43.32421875,62.49853410966532L45.731119791666664,60.09745015408758L48.13802083333333,55.3217366365515L50.544921875,54.727257759161276L52.951822916666664,51.615011512888266L55.358723958333336,48.37045379283636L57.765625,47.488419216483415L60.17252604166667,43.38781921977676L62.579427083333336,43.24187820211288L64.986328125,43.24187820211288L67.39322916666667,39.89356822064288L69.80013020833333,39.7483611346274L72.20703125,40.03875906844736L74.61393229166667,41.20169914543494L77.02083333333333,40.47462381862005L79.427734375,40.91078113316996L81.83463541666667,41.34723140511534L84.24153645833334,42.65829501618065L86.6484375,43.09592103083379L89.05533854166667,43.09592103083379L91.46223958333333,42.22096353889801L93.869140625,40.76534658058805L96.27604166666666,38.87789660488313L98.68294270833333,38.00864513882851L101.08984375,36.70687170229013L103.49674479166667,36.56237491699321L105.90364583333333,35.55194120575781L108.310546875,34.83115671330336L110.71744791666667,34.25512353678071L113.12434895833333,33.53572710839214L115.53125,32.38646239164642L117.93815104166667,31.955987583953778L120.34505208333334,32.96084066642468L122.751953125,32.81717441398687L125.15885416666667,31.81254330451979L127.56575520833333,32.529985301262045L129.97265625,31.669130684081036L132.37955729166666,31.52579776939769L134.78645833333334,31.239178716137317L137.193359375,29.807880911623524L139.60026041666666,29.093436489514435L142.00716145833331,29.807880911623524L144.4140625,29.23628170193789L146.82096354166666,29.66495792486624L149.22786458333334,29.66495792486624L151.634765625,29.807880911623524L154.04166666666666,29.807880911623524L156.44856770833331,29.95088328593038L158.85546875,29.807880911623524L161.26236979166666,29.52201845468555L163.66927083333334,28.522465131516196L166.076171875,28.09454171731898L168.48307291666669,28.37977673590859L170.88997395833334,28.522465131516196L173.296875,28.09454171731898L175.70377604166666,28.37977673590859L178.11067708333334,27.951947248738897L180.517578125,26.81250746296931L182.92447916666666,26.67019402453686L185.33138020833334,27.666899929106652L187.73828125,27.666899929106652L190.14518229166666,26.81250746296931L192.55208333333331,26.67019402453686L194.958984375,26.385708301632665L197.36588541666666,26.24348829739425L199.77278645833334,26.385708301632665L202.1796875,26.527911747954917L204.58658854166669,25.817062596267018L206.99348958333334,25.532950057287856L209.400390625,25.532950057287856L211.80729166666666,25.532950057287856L214.21419270833334,25.24896168853775L216.62109375,25.106990239932927L219.02799479166666,24.823187933544432L221.43489583333334,24.539509526420375L223.841796875,24.397692983086777L226.24869791666666,23.830831111138874L228.65559895833331,23.830831111138874L231.0625,23.689169135410165L233.46940104166666,23.972476472270998L235.87630208333334,24.114200232519924L238.283203125,24.114200232519924L240.69010416666669,23.830831111138874L243.09700520833334,23.689169135410165L245.50390625,23.405985266108015L247.91080729166666,23.972476472270998L250.31770833333334,23.830831111138874L252.724609375,23.264415871389335L255.13151041666666,23.264415871389335L257.53841145833337,22.839940077468494L259.9453125,22.839940077468494L262.3522135416667,22.981417012107897" style="fill: none;" fill="none"></path></g></g></g></g></g></g><g transform="translate(41, 177)" clip-path="url(#clip_1)"><clipPath id="clip_1"><rect width="288" height="23"></rect></clipPath><g><g><line x1="0" y1="0" x2="0" y2="5" style="visibility: inherit;" fill="rgb(0, 0, 0)" stroke="rgb(204, 204, 204)" stroke-width="1px"></line><line x1="24.069010416666664" y1="0" x2="24.069010416666664" y2="5" style="visibility: inherit;" fill="rgb(0, 0, 0)" stroke="rgb(204, 204, 204)" stroke-width="1px"></line><line x1="48.13802083333333" y1="0" x2="48.13802083333333" y2="5" style="visibility: inherit;" fill="rgb(0, 0, 0)" stroke="rgb(204, 204, 204)" stroke-width="1px"></line><line x1="72.20703125" y1="0" x2="72.20703125" y2="5" style="visibility: inherit;" fill="rgb(0, 0, 0)" stroke="rgb(204, 204, 204)" stroke-width="1px"></line><line x1="96.27604166666666" y1="0" x2="96.27604166666666" y2="5" style="visibility: inherit;" fill="rgb(0, 0, 0)" stroke="rgb(204, 204, 204)" stroke-width="1px"></line><line x1="120.34505208333334" y1="0" x2="120.34505208333334" y2="5" style="visibility: inherit;" fill="rgb(0, 0, 0)" stroke="rgb(204, 204, 204)" stroke-width="1px"></line><line x1="144.4140625" y1="0" x2="144.4140625" y2="5" style="visibility: inherit;" fill="rgb(0, 0, 0)" stroke="rgb(204, 204, 204)" stroke-width="1px"></line><line x1="168.48307291666669" y1="0" x2="168.48307291666669" y2="5" style="visibility: inherit;" fill="rgb(0, 0, 0)" stroke="rgb(204, 204, 204)" stroke-width="1px"></line><line x1="192.55208333333331" y1="0" x2="192.55208333333331" y2="5" style="visibility: inherit;" fill="rgb(0, 0, 0)" stroke="rgb(204, 204, 204)" stroke-width="1px"></line><line x1="216.62109375" y1="0" x2="216.62109375" y2="5" style="visibility: inherit;" fill="rgb(0, 0, 0)" stroke="rgb(204, 204, 204)" stroke-width="1px"></line><line x1="240.69010416666669" y1="0" x2="240.69010416666669" y2="5" style="visibility: inherit;" fill="rgb(0, 0, 0)" stroke="rgb(204, 204, 204)" stroke-width="1px"></line><line x1="264.7591145833333" y1="0" x2="264.7591145833333" y2="5" style="visibility: inherit;" fill="rgb(0, 0, 0)" stroke="rgb(204, 204, 204)" stroke-width="1px"></line><line x1="288.828125" y1="0" x2="288.828125" y2="5" style="visibility: inherit;" fill="rgb(0, 0, 0)" stroke="rgb(204, 204, 204)" stroke-width="1px"></line></g><g transform="translate(0, 8)"><text x="0" y="0" dx="0em" dy="0.95em" style="text-anchor: middle; visibility: hidden; font-family: Roboto, sans-serif; font-size: 12px; font-weight: 200;" fill="rgb(33, 33, 33)" stroke="none" stroke-width="1px">-10</text><text x="24.069010416666664" y="0" dx="0em" dy="0.95em" style="text-anchor: middle; visibility: inherit; font-family: Roboto, sans-serif; font-size: 12px; font-weight: 200;" fill="rgb(33, 33, 33)" stroke="none" stroke-width="1px">0</text><text x="48.13802083333333" y="0" dx="0em" dy="0.95em" style="text-anchor: middle; visibility: inherit; font-family: Roboto, sans-serif; font-size: 12px; font-weight: 200;" fill="rgb(33, 33, 33)" stroke="none" stroke-width="1px">10</text><text x="72.20703125" y="0" dx="0em" dy="0.95em" style="text-anchor: middle; visibility: inherit; font-family: Roboto, sans-serif; font-size: 12px; font-weight: 200;" fill="rgb(33, 33, 33)" stroke="none" stroke-width="1px">20</text><text x="96.27604166666666" y="0" dx="0em" dy="0.95em" style="text-anchor: middle; visibility: inherit; font-family: Roboto, sans-serif; font-size: 12px; font-weight: 200;" fill="rgb(33, 33, 33)" stroke="none" stroke-width="1px">30</text><text x="120.34505208333334" y="0" dx="0em" dy="0.95em" style="text-anchor: middle; visibility: inherit; font-family: Roboto, sans-serif; font-size: 12px; font-weight: 200;" fill="rgb(33, 33, 33)" stroke="none" stroke-width="1px">40</text><text x="144.4140625" y="0" dx="0em" dy="0.95em" style="text-anchor: middle; visibility: inherit; font-family: Roboto, sans-serif; font-size: 12px; font-weight: 200;" fill="rgb(33, 33, 33)" stroke="none" stroke-width="1px">50</text><text x="168.48307291666669" y="0" dx="0em" dy="0.95em" style="text-anchor: middle; visibility: inherit; font-family: Roboto, sans-serif; font-size: 12px; font-weight: 200;" fill="rgb(33, 33, 33)" stroke="none" stroke-width="1px">60</text><text x="192.55208333333331" y="0" dx="0em" dy="0.95em" style="text-anchor: middle; visibility: inherit; font-family: Roboto, sans-serif; font-size: 12px; font-weight: 200;" fill="rgb(33, 33, 33)" stroke="none" stroke-width="1px">70</text><text x="216.62109375" y="0" dx="0em" dy="0.95em" style="text-anchor: middle; visibility: inherit; font-family: Roboto, sans-serif; font-size: 12px; font-weight: 200;" fill="rgb(33, 33, 33)" stroke="none" stroke-width="1px">80</text><text x="240.69010416666669" y="0" dx="0em" dy="0.95em" style="text-anchor: middle; visibility: inherit; font-family: Roboto, sans-serif; font-size: 12px; font-weight: 200;" fill="rgb(33, 33, 33)" stroke="none" stroke-width="1px">90</text><text x="264.7591145833333" y="0" dx="0em" dy="0.95em" style="text-anchor: middle; visibility: inherit; font-family: Roboto, sans-serif; font-size: 12px; font-weight: 200;" fill="rgb(33, 33, 33)" stroke="none" stroke-width="1px">100</text><text x="288.828125" y="0" dx="0em" dy="0.95em" style="text-anchor: middle; visibility: hidden; font-family: Roboto, sans-serif; font-size: 12px; font-weight: 200;" fill="rgb(33, 33, 33)" stroke="none" stroke-width="1px">110</text></g><line x1="0" y1="0" x2="288.828125" y2="0" fill="rgb(0, 0, 0)" stroke="rgb(204, 204, 204)" stroke-width="1px"></line></g></g></g></g></svg>